<?xml version="1.0" encoding="UTF-8" standalone="no"?>
<!-- Created with Inkscape (http://www.inkscape.org/) -->

<svg
   width="512"
   height="512"
   viewBox="0 0 135.46666 135.46667"
   version="1.1"
   id="svg5"
   inkscape:version="1.2.1 (9c6d41e410, 2022-07-14)"
   sodipodi:docname="background2.svg"
   xmlns:inkscape="http://www.inkscape.org/namespaces/inkscape"
   xmlns:sodipodi="http://sodipodi.sourceforge.net/DTD/sodipodi-0.dtd"
   xmlns="http://www.w3.org/2000/svg"
   xmlns:svg="http://www.w3.org/2000/svg">
  <sodipodi:namedview
     id="namedview7"
     pagecolor="#505050"
     bordercolor="#eeeeee"
     borderopacity="1"
     inkscape:showpageshadow="0"
     inkscape:pageopacity="0"
     inkscape:pagecheckerboard="true"
     inkscape:deskcolor="#505050"
     inkscape:document-units="px"
     showgrid="false"
     inkscape:zoom="0.49664765"
     inkscape:cx="231.55249"
     inkscape:cy="215.44449"
     inkscape:window-width="1366"
     inkscape:window-height="697"
     inkscape:window-x="-8"
     inkscape:window-y="-8"
     inkscape:window-maximized="1"
     inkscape:current-layer="layer1" />
  <defs
     id="defs2" />
  <g
     inkscape:label="Layer 1"
     inkscape:groupmode="layer"
     id="layer1">
    <rect
       style="fill:#000080;stroke-width:7.62454"
       id="rect6582"
       width="254"
       height="127"
       x="9.6949062"
       y="12.577175"
       ry="0" />
    <path
       style="fill:#ffff00;stroke-width:9.50838"
       d="m 260.62231,25.813795 c -2.01956,-0.283321 -4.11736,0.202373 -6.14515,0 -0.37786,-0.03771 -0.64991,-0.305452 -1.0242,-0.357746 -2.14523,-0.299728 -4.99101,0 -7.16937,0 -5.29165,0 -10.58332,0 -15.87498,0 -2.92739,0 -7.24308,-0.51087 -9.72984,0.357746 -0.81557,0.284872 -2.20011,-0.203169 -3.07259,0 -1.97283,0.459404 -4.07333,1.069147 -6.14515,1.430986 -0.33121,0.05785 -0.78279,-0.168643 -1.0242,0 -0.12078,0.08432 0.15264,0.304416 0,0.357747 -2.73117,0.95399 1.14517,-1.583811 -2.56048,0.357746 -0.30535,0.159989 -0.2422,0.526944 -0.51211,0.715493 -1.15992,0.810315 -3.28012,1.169901 -4.60887,1.788733 -0.75564,0.351925 -1.66251,1.221882 -2.56047,1.430985 -0.32388,0.07542 -0.74013,-0.132299 -1.0242,0 -0.31759,0.147909 -0.24221,0.526945 -0.51209,0.715493 -0.18488,0.129214 -3.83288,1.369535 -4.09678,1.430985 -0.32388,0.07542 -0.70031,-0.07542 -1.02419,0 -1.59842,0.372214 0.17061,0.238498 -0.51209,0.715494 -0.12078,0.08432 -0.35017,-0.03771 -0.51211,0 -0.92687,-0.215624 -0.95241,0.579527 -1.53628,0.715493 -0.32388,0.07542 -0.71885,-0.106658 -1.0242,0 -0.15264,0.05333 0.12078,0.273423 0,0.357747 -0.33572,0.234532 -1.79182,0.178514 -2.04839,0.357747 -0.12078,0.08432 0,0.238494 0,0.357744 -0.34139,0 -0.71884,-0.106659 -1.0242,0 -0.15263,0.05333 0.15264,0.304416 0,0.357747 -0.40967,0.143097 -1.12661,-0.143099 -1.53628,0 -0.43184,0.150838 -0.59236,0.564654 -1.0242,0.715493 -0.15267,0.05333 -0.39139,-0.08432 -0.51209,0 -0.1207,0.08432 0.1207,0.273426 0,0.357747 -0.57582,0.402263 -1.87659,0.754728 -2.56048,1.073241 -1.17648,0.547914 0.21959,0.204343 -1.0242,1.073236 -0.1207,0.08432 -0.37007,-0.06615 -0.5121,0 -1.46738,0.683405 -2.08831,1.807329 -3.58467,2.504225 -0.81421,0.379201 -0.14621,0.766566 -1.02419,1.073241 -0.61062,0.213283 -2.09904,0.393127 -2.56049,0.715494 -0.2699,0.188549 -0.1945,0.567585 -0.5121,0.715493 -1.53628,0.715491 -0.51209,-0.357747 -1.53628,0 -0.59653,0.208364 -0.93977,0.507127 -1.5363,0.715491 -0.30535,0.106658 -0.71884,-0.106659 -1.02419,0 -1.09693,0.383153 -2.44255,0.674301 -3.58468,1.073241 -2.13122,0.744428 0.54745,-0.02471 -0.51209,0.715493 -0.55132,0.385148 -1.89608,0.841166 -2.56049,1.073237 -0.27117,0.09473 -6.88107,0.559139 -7.16935,0.357748 -0.15536,-0.10853 -0.86716,-3.49639 -1.02419,-3.93521 -0.18887,-0.527771 0.3402,-1.313396 0,-1.788734 -1.54621,-2.160338 -9.96468,-2.779945 -12.80242,-1.78873 -0.84874,0.296458 -0.95591,1.025534 -1.53629,1.430983 -0.12071,0.08432 -0.3914,-0.08432 -0.5121,0 -0.0944,0.06592 -0.41774,1.007322 -0.5121,1.073241 -0.1207,0.08432 -0.39139,-0.08432 -0.5121,0 -0.21169,0.147887 -0.61438,2.575686 -1.02419,2.861972 -0.25605,0.178872 -0.76814,0.178872 -1.02419,0.357746 -0.56805,0.396837 -0.73672,1.901742 -1.0242,2.504224 -0.44503,0.932702 0.53425,6.423969 0,6.797184 -0.1207,0.08432 -0.39139,-0.08432 -0.51209,0 -0.2699,0.18855 -0.30037,0.493628 -0.5121,0.715494 -0.21173,0.221863 -0.1945,0.56758 -0.5121,0.71549 -0.71507,0.333027 -3.24052,0.258052 -4.09677,0.357748 -1.89444,0.220572 -3.52423,0.515506 -5.12097,1.07324 -1.35244,0.472401 -8.14434,-0.18317 -10.24193,0 -1.48005,0.129241 -2.72936,0.524441 -4.09678,0.715494 -1.51365,0.211485 -3.5742,0 -5.12096,0 -4.504745,0 -8.973024,-0.07553 -13.314518,0.357747 -2.178361,0.217398 -4.133163,1.226504 -6.145163,1.78873 -0.501186,0.140049 -1.073417,0.163733 -1.536287,0.357748 -0.131609,0.05516 -1.536292,1.174452 -1.536292,1.430984 0,0.149202 0.996784,1.243554 0.512096,2.14648 -0.349485,0.65106 -1.144206,1.149619 -1.536291,1.788732 -0.409014,0.666711 -0.103074,1.479766 -0.512098,2.146477 -0.242441,0.395193 -0.79561,0.674034 -1.024189,1.07324 -0.126801,0.221441 0.1268,0.494054 0,0.715495 -0.02099,0.03667 -1.40635,2.055701 -1.536292,2.146477 -0.120702,0.08432 -0.391396,-0.08432 -0.512097,0 -0.362109,0.252966 0,2.106857 0,2.504225 0,1.082914 0.428213,5.424797 -0.512098,6.08169 -0.269899,0.188549 -0.754295,0.169197 -1.02419,0.357747 -0.383262,0.267743 -0.206099,1.145228 -1.024193,1.430988 -3.987786,1.392916 0.89254,-0.981273 -2.560487,1.430983 -0.120703,0.08432 -0.359419,-0.05333 -0.512097,0 -1.192449,0.416517 -1.963286,1.272108 -3.072579,1.788734 -1.860125,0.866313 -4.508322,1.646067 -6.657257,2.146479 -0.926908,0.21584 -2.150537,0.143036 -3.072584,0.357746 -0.229011,0.05333 -0.283079,0.304418 -0.512092,0.357747 -0.323879,0.07542 -0.718838,-0.106659 -1.024193,0 -0.152677,0.05333 0.152676,0.304418 0,0.357743 -2.05324,0.717189 -0.01036,-1.182898 -2.048391,0.715494 -2.158769,2.010799 -2.903777,3.703336 -3.584677,6.08169 -0.100435,0.3508 0.161941,0.733852 0,1.073241 -1.93034,4.045566 -1.536291,8.616456 -1.536291,12.878876 0,0.95731 -0.240321,2.57013 0,3.57746 0.10284,0.43108 1.592951,5.15409 2.048389,5.3662 3.946583,1.83803 14.116494,2.86197 18.947583,2.86197 2.387398,0 10.395958,0.44113 12.29032,0 4.322605,-1.00658 7.231394,-3.70749 8.705645,-6.79718 0.14396,-0.30171 -0.2022,-0.79073 0,-1.07324 0.640218,-0.89451 1.450391,-2.02647 2.048383,-2.86198 0.107961,-0.15083 0.341398,-0.23849 0.512098,-0.35774 0.341398,-0.35775 0.795617,-0.67403 1.024196,-1.07324 0.1268,-0.22144 -0.08281,-0.48412 0,-0.71549 3.712999,-7.78161 -0.5398,1.88549 1.024193,-3.57747 0.211726,-0.73955 0.740134,-1.41886 1.02419,-2.14648 0.273203,-0.6998 -0.222104,-1.63357 0.512097,-2.14647 0.120703,-0.0843 0.391397,0.0843 0.512098,0 0.236727,-0.16538 -0.154592,-0.85725 0,-1.07324 0.275246,-0.38457 0.682796,-0.7155 1.024194,-1.07325 0.365661,-0.38316 1.928824,-1.210345 2.560484,-1.430979 0.76376,-0.26678 2.22829,-0.239784 3.07258,-0.357747 1.57193,-0.219626 3.05283,-0.801479 4.60887,-1.073241 1.39727,-0.244029 2.68115,-0.0281 4.09678,-0.357746 0.32388,-0.07542 0.74013,0.132299 1.02419,0 0.40172,-0.187091 0.68279,-0.476993 1.02419,-0.71549 1.0242,-0.476997 1.99656,-1.013377 3.07259,-1.430989 0.47186,-0.183134 1.05347,-0.189102 1.53628,-0.357746 1.0295,-0.3596 1.62326,-1.103618 2.56049,-1.430984 0.57499,-0.200847 2.16411,-0.08085 2.56048,-0.357747 0.2699,-0.188549 0.2422,-0.526945 0.5121,-0.715493 0.29299,-0.204679 2.0305,0 2.56048,0 2.76819,0 6.33226,-0.111069 8.70564,1.07324 1.08487,0.541344 1.92937,1.309549 3.07259,1.78873 0.6546,0.274381 1.46193,0.374086 2.04838,0.715494 0.47282,0.275251 0.63018,0.742937 1.0242,1.073238 0.46363,0.388668 1.07265,0.684575 1.53628,1.07324 0.39402,0.330304 0.74896,0.688675 1.0242,1.073241 0.0763,0.106659 -0.15268,0.304417 0,0.357747 0.30536,0.106659 0.71884,-0.106658 1.02419,0 1.03278,0.360742 2.11798,1.288572 3.07258,1.788732 0.98929,0.51833 2.71049,1.17803 3.58468,1.78873 0.32323,0.2258 3.93049,4.74708 4.09678,5.00845 1.68835,0.42283 0.23685,1.21189 0.51209,1.78873 0.87124,1.82593 3.73912,3.18565 4.60887,5.00846 0.61903,1.29733 -0.18443,4.39301 0.5121,5.36619 0.5299,0.74038 0.5121,1.2422 0.5121,2.14648 0,0.64243 -0.24786,3.56602 -0.5121,3.93521 -0.1707,0.2385 -0.79518,0.14443 -1.0242,0.35775 -0.36601,0.34093 -1.47637,2.88484 -1.53628,3.21972 -0.0847,0.47331 0.0966,0.95878 0,1.43098 -0.0763,0.37331 -0.99491,0.90459 -0.5121,1.07324 0.89026,0.31096 1.67022,-0.76228 2.56048,-1.07324 0.62449,-0.21813 4.92786,-1.65383 5.12097,-1.78873 0.1207,-0.0843 -0.1207,-0.27343 0,-0.35775 0.3533,-0.24681 3.30159,-1.06064 4.09677,-1.43098 1.0145,0.0357 0.2422,-0.52695 0.5121,-0.71549 0.77443,-0.54102 5.97071,-1.30913 6.14516,-1.43099 0.12071,-0.0843 -0.15267,-0.30442 0,-0.35775 0.30535,-0.10666 0.71884,0.10666 1.02419,0 0.004,-10e-4 -0.47612,-1.27823 -1.02419,-1.78873 -0.22901,-0.21332 -0.81247,-0.13589 -1.02419,-0.35775 -0.18938,-0.19844 0.15268,-0.50217 0,-0.71549 -0.0763,-0.10666 -0.3914,0.0843 -0.5121,0 -0.0798,-0.0558 -0.0798,-1.37523 0,-1.43098 0.14343,-0.10022 2.35098,-0.0732 2.56048,0 0.83405,0.29132 1.71869,1.28396 2.56049,1.43098 0.66241,0.11568 1.43768,-0.21332 2.04838,0 0.43184,0.15084 0.56616,0.60883 1.0242,0.71549 0.32388,0.0754 0.70031,-0.0754 1.0242,0 0.46061,0.10726 2.96808,1.50399 3.58467,1.07324 0.24141,-0.16864 0,-0.47699 0,-0.71549 0,-0.15914 0.15889,-1.20898 0,-1.43099 -0.68444,-0.9563 -0.49655,-2.11389 -1.02419,-3.21972 -0.34751,-0.72828 -1.09364,-1.52799 -1.53629,-2.14647 -1.23816,-1.72994 -3.16851,-1.10675 -5.12097,-1.78873 -1.02187,-0.35694 -1.57888,-1.37729 -2.56049,-1.78874 -0.46287,-0.19401 -1.15459,-0.0911 -1.53629,-0.35775 -0.38169,-0.26664 -0.21267,-0.75947 -0.51209,-1.07323 -0.0947,-0.0992 -0.3914,0.0843 -0.5121,0 -0.1207,-0.0843 0.0878,-0.2555 0,-0.35775 -0.85074,-0.99053 -2.06454,-2.28077 -3.07258,-3.21972 -0.6558,-0.61085 -1.27551,-1.24881 -2.04839,-1.78873 -0.74732,-0.52207 -1.57153,-0.38237 -2.04838,-0.71549 -0.1207,-0.0843 0.10241,-0.26235 0,-0.35775 -0.57937,-0.53966 -1.51276,-0.86971 -2.04839,-1.43099 -0.29943,-0.31376 -0.1304,-0.80659 -0.5121,-1.07323 -0.1207,-0.0843 -0.39139,0.0843 -0.5121,0 -2.00111,-1.39797 -2.23007,-5.196969 -0.51209,-6.797188 0.74198,-0.691127 2.52685,-0.75653 3.58468,-1.07324 0.5657,-0.169367 0.9858,-0.52321 1.53629,-0.715494 4.94577,-1.727537 -0.95502,0.460889 2.56048,-0.357743 0.22902,-0.05333 0.28308,-0.304418 0.5121,-0.357747 0.30464,-0.07094 3.95675,-0.259931 4.09677,-0.357747 0.2699,-0.188549 0.2422,-0.526945 0.5121,-0.715493 0.20692,-0.144559 2.75164,-0.07474 3.07258,0 2.04838,0.476995 -0.10354,0.343278 2.56048,0.715493 0.51267,0.07162 2.68383,-0.271581 3.07258,0 0.12078,0.08432 -0.15264,0.304417 0,0.357747 1.00332,0.350449 2.53707,-0.0082 3.58467,0.357747 1.13228,0.395497 0.1589,0.222032 0.51211,0.71549 0.41332,0.577481 1.14664,0.750479 1.53629,1.430987 0.30885,0.539386 1.06494,2.53269 1.53628,2.861972 0.12078,0.08432 0.3914,-0.08432 0.51211,0 0.34139,0.238498 -0.3414,1.19249 0,1.430986 0.60351,0.42161 1.23869,0.88469 2.04839,1.07324 3.10921,0.72402 3.77317,-0.7155 5.63306,-0.7155 0.433,0 1.78193,-0.18614 2.04839,0 0.12078,0.0843 -0.12078,0.27343 0,0.35775 0.25831,0.18047 2.10732,0.51603 2.56048,0.35775 0.76338,-0.26665 1.44488,-0.65163 2.04839,-1.07324 3.18649,-2.226061 3.07257,-3.376156 3.07257,-6.081692 0,-0.357743 -0.22902,-0.753262 0,-1.073237 0.0764,-0.106659 0.37006,0.06615 0.51211,0 0.4017,-0.187094 0.62247,-0.5284 1.02417,-0.715493 0.14209,-0.06615 0.39141,0.08432 0.51211,0 0.12078,-0.08432 -0.12078,-0.273427 0,-0.357748 0.84555,-0.590693 3.53353,-0.357747 4.60887,-0.357747 0.71063,0 2.40454,-0.233346 3.07259,0 0.21592,0.07542 0.29616,0.282327 0.51208,0.357747 0.30536,0.106659 0.74015,-0.132299 1.0242,0 2.76262,1.286633 -0.35271,0.111356 1.53628,1.430988 0.31937,0.223105 5.00503,3.179212 5.12098,3.219719 4.55008,1.589321 2.53099,0.04269 6.14515,3.577463 1.0687,1.0452 1.25445,0.40211 2.04839,1.78873 0.32295,0.564 0.18919,1.22474 0.51211,1.78873 1.66883,2.9146 0.52679,-0.67444 1.53629,2.14648 0.0829,0.23138 -0.15264,0.50218 0,0.71549 0.21592,0.30168 0.72257,0.45212 1.02419,0.7155 0.9006,0.78644 3.54604,3.4273 4.09676,4.29296 0.42172,0.66284 0.0477,1.49769 0.51211,2.14648 0.78101,1.09122 2.3024,2.14363 3.07257,3.21971 0.68167,0.95241 -0.10886,5.29009 1.02419,6.08169 0.12078,0.0843 0.39141,-0.0843 0.51211,0 0.28853,0.20157 0.79731,1.32532 1.0242,1.43099 0.44913,0.20917 1.10444,0.13149 1.53628,0.35774 0.30535,0.15999 0.15772,0.61647 0.51211,0.7155 0.63394,0.17715 1.37487,-0.0784 2.04837,0 1.57816,0.18375 4.44972,0.96206 5.63306,1.78873"
       id="path6457" />
    <path
       style="fill:#008000;stroke-width:9.50838"
       d="m 66.537648,39.765906 c 3.652022,-0.135098 3.738275,0.572359 5.120963,2.504228 0.241406,0.337286 0.130397,0.806588 0.512096,1.073237 0.120703,0.08432 0.391397,-0.08432 0.512098,0 0.120703,0.08432 -0.120703,0.273427 0,0.357747 0.269898,0.188549 0.754297,0.169197 1.024195,0.357747 0.269899,0.188549 0.242197,0.526944 0.512098,0.715493 0.009,0.0063 3.266635,0.641433 3.584676,0.71549 0.53093,0.123644 2.179509,2.329688 2.560481,2.861976 0.170696,0.238494 0.391397,0.462525 0.512098,0.715491 0.528655,1.107945 0,3.97886 0,5.366199 0,0.147306 0.135556,0.978541 0,1.073237 -0.269899,0.188549 -0.754295,0.169198 -1.024196,0.357747 -0.747863,0.522451 -1.489458,1.414631 -2.560481,1.78873 -0.622131,0.217308 -1.627605,0.127589 -2.048385,0.715495 -0.187953,0.262595 -0.89374,0.799835 -1.024193,1.07324 -0.10796,0.226259 0.18936,0.517051 0,0.715494 -0.211726,0.221863 -0.754297,0.169197 -1.024195,0.357747 -0.236723,0.165371 0.154591,0.85724 0,1.073236 -0.381532,0.533065 -2.309525,1.879949 -3.072579,2.146479 -0.152677,0.05333 -0.391397,-0.08432 -0.512098,0 -0.120703,0.08432 0.120703,0.273425 0,0.357747 -0.26084,0.182219 -2.753199,0 -3.072578,0 -0.946372,0 -2.669506,0.213112 -3.584682,0 -3.331877,-0.775873 -0.488352,-3.960088 0.512097,-5.00845 0.267816,-0.28064 0.871517,-0.395515 1.024196,-0.715493 0.405646,-0.850146 -0.606206,-0.649749 0.512096,-1.430985 0.120702,-0.08432 0.391391,0.08432 0.512097,0 0.241402,-0.168644 -0.241407,-0.546852 0,-0.715493 0.120703,-0.08432 0.391391,0.08432 0.512098,0 0.324789,-0.226895 0.112709,-2.189277 0,-2.504224 -0.784881,-2.193252 -1.40695,-1.250272 -2.560487,-2.861972 -0.152676,-0.21332 0.107961,-0.489235 0,-0.715494 -0.801036,-1.678795 -2.68628,-2.97707 -3.584676,-4.650707 -0.836359,-1.558064 1.43036,0.246746 -0.512098,-1.78873 -0.09469,-0.09922 -0.359419,0.05333 -0.512097,0 -0.832998,-0.290964 -0.968897,-1.402457 -1.02419,-1.78873 -0.05259,-0.367422 -0.323961,-4.42439 0,-4.650706 0.362103,-0.252966 1.050468,0.11313 1.536287,0 0.470601,-0.109581 1.330524,-0.692075 2.048389,-0.357747 2.467022,1.148963 0.980738,2.138891 5.12097,2.861971 z"
       id="path6461" />
    <path
       style="fill:#000080;stroke-width:9.50838"
       d="m 41.957002,55.864498 9.217739,-2.861972"
       id="path6463" />
    <path
       style="fill:#ff0000;stroke-width:9.50838"
       d="m 56.295711,50.498302 c -0.728788,0.02098 -3.013547,-0.60999 -4.096774,-0.357747 -0.606602,0.141255 -0.960457,0.872103 -1.536291,1.073241 -0.781792,0.273072 -1.471455,0.826422 -2.048385,1.430983 -0.423451,0.44373 -0.56616,1.004349 -1.024196,1.430987 -1.135836,1.057979 -2.732261,2.901218 -0.512096,3.935209 0.98718,0.459761 2.311479,0.357748 3.584677,0.357748 0.885229,0 2.977364,-0.145613 3.584676,-0.357748 0.152676,-0.05333 -0.120703,-0.273422 0,-0.357747 0.120703,-0.08432 0.391395,0.08432 0.512096,0 0.381697,-0.266645 0.130396,-0.806587 0.512097,-1.073237 0.120703,-0.08432 0.391397,0.08432 0.512098,0 0.205682,-0.143686 -0.09655,-0.870906 0,-1.07324 0.06643,-0.139221 0.445666,-1.291762 0.512098,-1.430985 0.07634,-0.159989 0.435757,-0.197756 0.512098,-0.357745 0.16194,-0.339389 -0.362109,-0.820276 0,-1.073242 0.120702,-0.08432 0.391391,0.08432 0.512097,0 0.763385,-0.533295 -0.623243,-1.446224 -1.024195,-2.146477 z"
       id="path6465" />
  </g>
</svg>
