<?xml version="1.0" encoding="UTF-8" standalone="no"?>
<!-- Created with Inkscape (http://www.inkscape.org/) -->

<svg
   width="512"
   height="512"
   viewBox="0 0 135.46666 135.46667"
   version="1.1"
   id="svg5"
   inkscape:version="1.2.1 (9c6d41e410, 2022-07-14)"
   sodipodi:docname="char_walk_1.svg"
   inkscape:export-filename="character.png"
   inkscape:export-xdpi="96"
   inkscape:export-ydpi="96"
   xmlns:inkscape="http://www.inkscape.org/namespaces/inkscape"
   xmlns:sodipodi="http://sodipodi.sourceforge.net/DTD/sodipodi-0.dtd"
   xmlns="http://www.w3.org/2000/svg"
   xmlns:svg="http://www.w3.org/2000/svg">
  <sodipodi:namedview
     id="namedview7"
     pagecolor="#505050"
     bordercolor="#eeeeee"
     borderopacity="1"
     inkscape:showpageshadow="0"
     inkscape:pageopacity="0"
     inkscape:pagecheckerboard="true"
     inkscape:deskcolor="#505050"
     inkscape:document-units="px"
     showgrid="false"
     inkscape:zoom="0.92871706"
     inkscape:cx="236.88593"
     inkscape:cy="155.05261"
     inkscape:window-width="1366"
     inkscape:window-height="697"
     inkscape:window-x="-8"
     inkscape:window-y="-8"
     inkscape:window-maximized="1"
     inkscape:current-layer="layer1" />
  <defs
     id="defs2" />
  <g
     inkscape:label="Layer 1"
     inkscape:groupmode="layer"
     id="layer1">
    <path
       style="fill:#ff9955;fill-opacity:1;stroke:none;stroke-width:1.39163;stroke-opacity:0.952941"
       d="m 33.538359,26.020728 c 0.07826,-0.04285 0.265891,-0.02822 0.234775,-0.128558 -0.03112,-0.100337 -0.282629,0.21987 -0.234775,0.128558 0.0871,-0.166188 0.255573,-0.231858 0.364179,-0.375478 0.01492,-0.01973 -0.03167,-0.04994 -0.02334,-0.07525 0.01863,-0.0566 0.06729,-0.08848 0.09405,-0.139532 0.02675,-0.05105 -0.01933,-0.136133 0.01202,-0.182643 0.05302,-0.07866 0.312722,-0.219173 0.328823,-0.26809 0.0083,-0.02532 -0.03944,-0.05716 -0.02334,-0.07525 0.08776,-0.09864 0.331935,-0.107898 0.410855,-0.224979 0.01402,-0.0208 -0.03167,-0.04994 -0.02334,-0.07525 0.0035,-0.01076 0.167875,-0.100735 0.176081,-0.09642 0.109299,0.05744 0.09315,0.49692 0.186705,0.602006 0.06746,0.07578 0.153536,0.150673 0.21074,0.236724 0.0407,0.06123 0.01201,0.195269 0.07002,0.225752 0.01934,0.01019 0.03936,-0.04231 0.05869,-0.03214 0.03867,0.02032 0.008,0.130179 0.04668,0.150503 0.01933,0.01018 0.03936,-0.04231 0.05869,-0.03215 0.058,0.03049 0.03314,0.160545 0.07002,0.225752 0.111752,0.197612 0.231694,0.358334 0.362785,0.505588 0.03141,0.03529 0.008,0.13018 0.04668,0.150503 0.01933,0.01018 0.03913,-0.02143 0.05869,-0.03214 0.299633,-0.164074 0.880487,-0.245401 1.138518,-0.535402 0.02277,-0.02559 0.01553,-0.07797 0.03536,-0.107394 0.03714,-0.05509 0.133141,-0.04817 0.176081,-0.09642 0.118355,-0.133023 0.215734,-0.330138 0.34084,-0.45073 0.03419,-0.03295 0.08519,-0.02808 0.117387,-0.06428 0.02277,-0.02559 0.02357,-0.07159 0.03536,-0.107394 0.03135,-0.04651 0.05583,-0.102684 0.09405,-0.139532 0.05128,-0.04943 0.15108,-0.02048 0.17608,-0.09642 0.0083,-0.02531 -0.03944,-0.05715 -0.02334,-0.07525 0.0805,-0.09048 0.212964,-0.07023 0.293468,-0.160698 0.02277,-0.02559 0.02357,-0.07159 0.03536,-0.107394 0.05091,-0.05723 0.09869,-0.119565 0.152742,-0.171671 0.06633,-0.06394 0.168441,-0.06462 0.234774,-0.128559 0.04796,-0.04622 0.08892,-0.186857 0.129405,-0.246921 0.08778,-0.130227 0.323075,-0.09475 0.410854,-0.224977 0.0085,-0.01258 -0.35795,-0.520274 -0.32743,-0.612979 0.0083,-0.02532 0.04467,-0.01135 0.05869,-0.03214 0.05478,-0.08127 0.07463,-0.165654 0.129404,-0.246922 0.06264,-0.09294 0.551892,-0.360848 0.64563,-0.353537 0.07071,0.0055 0.391047,0.01655 0.422176,0.03292 0.03437,0.01807 0.09678,0.157745 0.12871,0.193611 0.08069,0.09064 0.122844,0.0015 0.222758,0.05409 0.07326,0.0385 0.100656,0.191561 0.152047,0.268862 0.06067,0.09127 0.150066,0.145454 0.21074,0.236724 0.03618,0.05443 0.02841,0.179018 0.07001,0.225753 0.04443,0.0499 0.119635,0.03631 0.164065,0.08622 0.135313,0.151998 0.142169,0.500298 0.151347,0.7094 0.0057,0.128947 0.111031,0.247307 0.116691,0.376253 0.01005,0.228935 -0.01813,0.686146 -0.142119,0.870097 -0.197154,0.292497 -0.596154,0.614403 -0.915759,0.589488 -0.04195,-0.0033 -0.07872,0.0846 -0.117387,0.06428 -0.03792,-0.01993 -0.0382,-0.190019 -0.07001,-0.225753 -0.02222,-0.02495 -0.05982,-0.01816 -0.08204,-0.04312 -0.123619,-0.138862 -0.06306,-0.639493 -0.316109,-0.355087 -0.110958,0.12471 -0.104246,0.353953 -0.200116,0.461701 -0.0322,0.0362 -0.08935,0.02268 -0.117387,0.06428 -0.03966,0.05883 -0.03965,0.147973 -0.07071,0.214782 -0.02456,0.05282 -0.07542,0.08293 -0.09405,0.139532 -0.0083,0.02532 0.03167,0.04994 0.02334,0.07525 -0.02854,0.0867 -0.650468,0.480385 -0.775034,0.600457 -0.03823,0.03685 -0.05805,0.09906 -0.09405,0.139532 -0.151327,0.170081 -0.512119,0.155462 -0.64563,0.353537 -0.01983,0.02942 -0.01259,0.0818 -0.03536,0.107394 -0.185708,0.208714 -1.373342,0.75202 -1.702115,0.93205 -0.206044,0.112828 -1.045858,0.652775 -1.173871,0.642794 -0.20498,-0.01598 -0.242308,-0.338513 -0.304092,-0.537728 -0.171549,-0.553136 -0.374453,-0.985976 -0.548796,-1.548127 -0.06641,-0.21412 -0.208824,-0.872026 -0.303397,-0.978261 -0.09159,-0.102883 -0.195181,-0.186557 -0.292771,-0.279836 z"
       id="path2107-5"
       inkscape:export-filename="char_walk_1.png"
       inkscape:export-xdpi="96"
       inkscape:export-ydpi="96" />
    <path
       style="fill:#ff9955;fill-opacity:1;stroke:none;stroke-width:1.39163;stroke-opacity:0.952941"
       d="m 31.639747,23.044115 c 0.04232,-0.10852 0.08464,-0.21704 0.126965,-0.32556 0.02116,0 0.04852,0.01918 0.06348,0 0.02993,-0.03837 -0.01893,-0.114249 0,-0.162782 0.07373,-0.189072 0.244368,-0.301045 0.317411,-0.48834 0.01269,-0.03254 0.10326,-1.525804 0.06348,-1.627806 -0.0763,-0.195643 -0.286081,-0.224615 -0.380892,-0.406951 -0.08471,-0.16292 -0.25113,-0.318384 -0.31741,-0.488342 -0.01893,-0.04853 0.02178,-0.116253 0,-0.16278 -0.117294,-0.250637 -0.322424,-0.514051 -0.380893,-0.813902 -0.01026,-0.05264 0.01892,-0.114249 0,-0.16278 -0.02677,-0.06863 -0.09377,-0.09893 -0.126965,-0.162781 -0.192127,-0.369489 -0.2511,-1.040611 -0.126964,-1.465024 0.170753,-0.583792 0.540843,-1.588706 0.88875,-2.034756 0.187549,-0.240457 0.467811,-0.555205 0.698303,-0.732513 0.226417,-0.174173 0.0224,-0.0057 0.317411,-0.08139 0.382961,-0.0982 -0.05147,-0.03872 0.190446,-0.16278 0.261708,-0.134215 0.553246,-0.225916 0.825267,-0.325562 0.161748,-0.05925 0.288876,-0.177716 0.444375,-0.24417 0.317374,-0.135635 1.050719,-0.155301 1.396606,-0.08139 0.22687,0.04847 0.54231,0.658077 0.634821,0.895292 0.02839,0.0728 -0.02008,0.166958 0,0.244171 0.0095,0.0364 0.0501,0.04708 0.06348,0.08139 0.03046,0.07811 -0.02032,0.247398 0,0.32556 0.02993,0.115103 0.09182,0.212909 0.126965,0.325561 0.01571,0.05038 -0.02993,0.124412 0,0.162781 0.01496,0.01918 0.05679,-0.02574 0.06349,0 0.06939,0.266916 -0.05943,0.251962 0.06348,0.488341 0.09723,0.186983 0.03627,-0.0349 0.190447,0.16278 0.0505,0.06475 0.08135,0.348473 0.126964,0.406952 0.01496,0.01919 0.04852,-0.01919 0.06348,0 0.01496,0.01919 -0.01496,0.0622 0,0.08139 0.02993,0.03837 0.108038,-0.04853 0.126965,0 0.01893,0.04853 -0.01893,0.114249 0,0.16278 0.02839,0.0728 0.133666,-0.0364 0.190446,0 0.01893,0.01213 -0.01496,0.0622 0,0.08139 0.03679,0.04717 0.217134,0.115607 0.253928,0.162781 0.02918,0.03741 0.291724,0.602665 0.190447,0.732512 -0.10546,0.135209 -0.449603,0.354925 -0.571339,0.406951 -0.06023,0.02574 -0.145558,-0.05755 -0.190447,0 -0.0034,0.0044 -0.123524,0.23976 -0.126963,0.24417 -0.02993,0.03837 -0.09704,-0.03837 -0.126965,0 -0.0405,0.05192 -0.01997,0.762701 0,0.813903 0.05846,0.149892 0.399773,1.033866 0.253928,1.220853 -0.01496,0.01919 -0.04456,-0.01213 -0.06348,0 -0.151528,0.09714 -0.206492,0.33242 -0.380892,0.406952 -0.115301,0.04928 -0.650839,-0.06086 -0.698304,0 -0.01496,0.01918 0.0095,0.05712 0,0.08139 -0.07018,0.179958 -0.0394,0.02526 -0.126965,0.08139 -0.264197,0.169364 0.06787,-0.0056 -0.06348,0.162781 -0.131347,0.168399 0.0051,-0.257336 -0.126964,0.08139 -0.03129,0.08024 0.062,0.893396 0.06349,0.895293 0.01496,0.01918 0.04852,-0.01919 0.06348,0 0.0593,0.07603 0.06767,0.330926 0.126965,0.406951 0.0099,0.01269 0.180545,0.150088 0.190446,0.16278 0.05027,0.06445 0.09946,0.463949 0.126964,0.569732 0.01537,0.05912 0.127121,0.32536 0.06348,0.406951 -0.01496,0.01919 -0.04456,-0.01213 -0.06348,0 -0.09684,0.06208 -0.159251,0.183478 -0.253929,0.244171 -0.116541,0.07471 -0.193673,-0.07726 -0.31741,0.08139 -0.01496,0.01918 0.01496,0.0622 0,0.08139 -0.02992,0.03837 -0.09704,-0.03837 -0.126964,0 -0.01496,0.01919 0.01496,0.0622 0,0.08139 -0.02911,0.03732 -0.413923,0 -0.507857,0 -0.417869,0 -1.042777,0.145431 -1.396607,-0.08139 -0.169285,-0.108521 -0.465535,0.10852 -0.634821,0 -0.110195,-0.07064 -0.138283,-0.145326 -0.253928,-0.244171 -7.18e-4,-6.5e-4 -0.653592,-0.02407 -0.698303,-0.08139 -0.09581,-0.122837 -0.169286,-0.271301 -0.253929,-0.406952 z"
       id="path298" />
    <path
       style="fill:#008000;fill-opacity:1;stroke:none;stroke-width:1.39163;stroke-opacity:0.952941"
       d="m 31.893675,23.451067 c 0.01483,-0.01703 1.100275,0.624034 1.523572,0.406951 0.07083,-0.03633 0.119606,-0.126451 0.190446,-0.162781 0.138048,-0.0708 0.258544,0.03774 0.444374,-0.08139 0.247063,-0.158379 0.898929,0.156256 1.142678,0 0.01893,-0.01213 -0.01496,-0.0622 0,-0.08139 0.02993,-0.03837 0.09704,0.03837 0.126964,0 0.01496,-0.01919 -0.01496,-0.0622 0,-0.08139 0.02116,-0.02713 0.169286,-0.05426 0.190447,-0.08139 0.01496,-0.01918 -0.01496,-0.0622 0,-0.08139 0.03174,-0.04069 0.158705,0.04069 0.190445,0 0.01496,-0.01918 -0.01496,-0.0622 0,-0.08139 0.02993,-0.03837 0.09704,0.03837 0.126965,0 0.01496,-0.01919 -0.01496,-0.0622 0,-0.08139 0.05659,-0.07255 0.186509,-0.03818 0.253928,-0.08139 0.02677,-0.01716 0.03356,-0.08139 0.06349,-0.08139 0.02116,0 -0.01496,0.0622 0,0.08139 0.01496,0.01919 0.04852,-0.01918 0.06349,0 0.01837,0.02355 0.162594,0.335531 0.190446,0.406952 0.09393,0.240844 0.2212,0.485809 0.31741,0.732512 0.08498,0.217909 0.158643,0.569244 0.190446,0.813902 0.01392,0.107043 -0.0166,0.219148 0,0.325561 -0.01456,0.163443 0.09933,0.265213 0.126965,0.40695 0.03962,0.203169 -0.03198,0.44611 0,0.651122 0.07258,0.465299 0.192835,0.913675 0.253928,1.383635 0.04788,0.36833 0.09794,0.154628 0.190447,0.569732 0.01744,0.07826 -0.01245,0.164361 0,0.24417 0.0093,0.05948 0.04232,0.10852 0.06348,0.162781 0.02116,0.135651 0.05156,0.26946 0.06349,0.406951 0.0093,0.107857 -0.01197,0.218131 0,0.325562 0.0095,0.08493 0.05248,0.159544 0.06348,0.24417 0.02087,0.160566 -0.05678,0.342745 0,0.488341 0.08444,0.21652 0.198857,-0.07843 0.126965,0.24417 -0.0543,0.243683 -0.198703,0.438712 -0.253929,0.651123 -0.01338,0.05148 0.01893,0.114249 0,0.162779 -0.05012,0.128539 -0.21632,0.2623 -0.253928,0.406952 -0.05179,0.199187 -0.06268,1.138431 -0.06348,1.139464 -0.0027,0.0035 -0.374067,0.323373 -0.380893,0.325561 -0.04106,0.01316 -0.08911,-0.02426 -0.126964,0 -0.05353,0.03431 -0.07343,0.128464 -0.126965,0.16278 -0.03785,0.02426 -0.08591,-0.01316 -0.126964,0 -0.09181,0.02943 -0.161133,0.138987 -0.253928,0.162781 -0.38321,0.09826 0.01616,-0.154789 -0.444375,0.08139 -0.102943,0.05279 -0.200418,0.194172 -0.31741,0.244171 -0.153546,0.06562 -1.104726,0.0074 -1.142678,0 -0.112629,-0.02221 -0.20567,-0.134128 -0.317411,-0.162781 -0.145982,-0.03743 -0.707288,-0.01152 -0.825268,-0.16278 -0.01496,-0.01919 0.01496,-0.0622 0,-0.08139 -0.04558,-0.05843 -0.442533,0 -0.507856,0 -0.41347,0 -0.373082,-0.04483 -0.761786,-0.24417 -0.08774,-0.045 -0.566609,0.006 -0.634821,-0.08139 -0.122251,-0.156738 -0.06349,-2.132363 -0.06349,-2.360316 0,-0.108521 -0.01391,-0.218518 0,-0.325561 0.0078,-0.05984 0.04852,-0.105229 0.06349,-0.162781 0.06357,-0.244514 -0.03976,-0.559035 0,-0.813903 0.03573,-0.229043 0.03634,-0.424913 0.06349,-0.651121 0.08022,-0.668556 0.253928,-1.356217 0.253928,-2.034756 0,-0.664821 -9.2e-4,-1.293254 0.06349,-1.953366 0.01061,-0.108784 -0.03758,-0.31058 0,-0.406952 0.04629,-0.118701 0.101553,-0.130201 0.126964,-0.162779 0.0222,-0.02846 0.119456,-0.68439 0.126964,-0.732512 z"
       id="path1793" />
    <path
       style="fill:#e3dbdb;fill-opacity:1;stroke:none;stroke-width:1.39163;stroke-opacity:0.952941"
       d="m 37.543582,44.856699 c -0.0015,1.038999 -0.09134,1.308771 0.761786,1.465026 0.08379,0.01535 0.171453,-0.02439 0.253929,0 0.195607,0.05787 0.377369,0.177853 0.571339,0.244171 0.36893,0.126133 0.769464,0.22986 1.142678,0.325561 0.414333,0.106243 1.317932,0 1.777499,0 0.147052,0 0.65719,0.09741 0.761785,-0.08139 0.0552,-0.09436 0.296228,-1.573573 0.190446,-1.709193 -0.01496,-0.01919 -0.04588,0.01505 -0.06348,0 -0.0498,-0.04257 -0.07196,-0.132555 -0.126964,-0.162782 -0.373358,-0.20515 -1.85393,-0.08139 -2.41232,-0.08139 -0.152018,0 -0.369041,0.05932 -0.507857,0 -0.0067,-0.0029 -0.05365,-0.137564 -0.06349,-0.162781 -0.04732,-0.121328 -0.171309,-0.159429 -0.253928,-0.244169 -0.294519,0.06965 -0.07301,-0.175003 -0.126965,-0.244172 -0.01496,-0.01919 -0.04341,0.0086 -0.06348,0 -0.420408,-0.179668 -0.530842,0.05473 -0.952232,0.162781 -0.0415,0.01063 -0.08911,-0.02425 -0.126964,0 -0.01893,0.01213 0.01496,0.0622 0,0.08139 -0.07359,0.09436 -0.410379,-0.0186 -0.507857,0.08139 -0.09347,0.09588 -0.169285,0.217039 -0.253929,0.325559 z"
       id="path2040" />
    <path
       style="fill:#e3dbdb;fill-opacity:1;stroke:none;stroke-width:1.39163;stroke-opacity:0.952941"
       d="m 27.501191,39.03409 c 0.103082,0.6177 0.347381,1.183815 0.422906,1.773897 0.0141,0.110116 0.115682,0.170835 0.14712,0.275011 0.01113,0.03681 -0.02215,0.07813 -0.01315,0.115912 0.06914,0.290012 0.434339,0.811909 0.588479,1.100043 0.223491,0.417772 0.521851,0.855723 0.698819,1.306302 0.224313,0.571147 0.01772,0.173606 0.133974,0.39092 0.09632,0.180041 0.343669,0.49902 0.3678,0.687528 0.01,0.07786 -0.03625,0.153959 -0.02629,0.231817 0.009,0.06993 0.165608,0.309103 0.133973,0.390919 -0.0642,0.166006 -0.3327,0.314248 -0.449321,0.4244 -0.04359,0.04117 -0.332792,0.393836 -0.399396,0.377244 -0.02044,-0.0051 -0.02452,-0.04584 -0.03678,-0.06875 -0.03328,0.03143 -0.05912,0.08669 -0.09985,0.09431 -0.02036,0.0038 -0.01837,-0.05529 -0.03678,-0.06875 -0.06637,-0.04856 -0.138823,-0.07986 -0.210187,-0.111948 -0.08313,-0.0374 -0.176985,-0.0274 -0.260115,-0.06479 -0.148227,-0.06667 -0.372382,-0.146935 -0.507081,-0.245492 -0.01841,-0.01347 -0.01634,-0.06367 -0.03678,-0.06875 -0.02044,-0.0051 -0.02949,0.05224 -0.04992,0.04716 -0.156237,-0.03892 -0.405919,-0.6183 -0.491285,-0.777876 -0.102296,-0.19122 -0.265839,-0.40272 -0.33102,-0.618774 -0.23995,-0.795345 -0.348681,-1.666744 -0.567373,-2.465384 -0.03886,-0.141916 -0.04174,-0.297814 -0.08405,-0.438074 -0.0514,-0.170346 -0.376936,-0.48762 -0.281094,-0.665931 0.0678,-0.126132 0.231752,-0.156802 0.299549,-0.282934 0.01685,-0.03134 -1.5e-4,-0.08153 0.01315,-0.115912 0.0094,-0.0243 0.04683,-0.01983 0.04993,-0.04716 0.0031,-0.02733 -0.04617,-0.04445 -0.03678,-0.06875 0.240346,-0.621407 -0.06291,0.704825 0.212842,-0.304534 0.0071,-0.02579 -0.03988,-0.04143 -0.03678,-0.06875 0.006,-0.05302 0.353727,-0.368699 0.399396,-0.377244 0.02881,-0.0054 0.05889,0.03244 0.08671,0.0216 0.157317,-0.06132 0.266264,-0.251495 0.399396,-0.377244 z"
       id="path2105" />
    <path
       style="fill:#ff9955;fill-opacity:1;stroke:none;stroke-width:1.39163;stroke-opacity:0.952941"
       d="m 33.49896,26.209361 c 0.07918,0.03975 0.208663,0.22079 0.237533,0.119276 0.02887,-0.101508 -0.319427,-0.09605 -0.237533,-0.119276 0.14905,-0.04228 0.305837,0.06273 0.458988,0.05646 0.02103,-8.59e-4 0.0025,-0.06522 0.02165,-0.07614 0.04271,-0.02441 0.09464,-0.0035 0.14042,-0.0165 0.04578,-0.01299 0.05589,-0.11695 0.102691,-0.12245 0.07916,-0.0093 0.341043,0.123877 0.377953,0.102777 0.0191,-0.01092 5.92e-4,-0.07754 0.02165,-0.07614 0.114797,0.0076 0.297854,0.222574 0.415683,0.208734 0.02093,-0.0024 0.0025,-0.06522 0.02165,-0.07614 0.0081,-0.0046 0.174379,0.07886 0.17815,0.08946 0.05027,0.141173 -0.1875,0.447414 -0.173225,0.609082 0.01029,0.116578 0.03463,0.249411 0.03216,0.364178 -0.0018,0.08166 -0.09164,0.153484 -0.06496,0.228406 0.0089,0.02496 0.05049,0.0049 0.05938,0.02982 0.01778,0.04995 -0.06109,0.102323 -0.0433,0.15227 0.0089,0.02497 0.05049,0.0049 0.05938,0.02982 0.02668,0.07491 -0.05836,0.147309 -0.06496,0.228404 -0.02001,0.245751 -0.01508,0.472 0.0049,0.698539 0.0048,0.05429 -0.06109,0.102323 -0.04331,0.15227 0.0089,0.02497 0.03959,0.01988 0.05938,0.02982 0.303153,0.152228 0.7691,0.620192 1.106629,0.642699 0.02979,0.002 0.05144,-0.04284 0.08104,-0.04631 0.05544,-0.0065 0.121982,0.08571 0.178149,0.08946 0.154822,0.01032 0.327283,-0.0452 0.480642,-0.01967 0.04191,0.0069 0.07665,0.05683 0.118766,0.05964 0.02979,0.002 0.05403,-0.03087 0.08104,-0.04631 0.0468,-0.0055 0.09356,-0.02429 0.14042,-0.0165 0.06286,0.01046 0.12085,0.122204 0.17815,0.08946 0.0191,-0.01092 5.93e-4,-0.07754 0.02165,-0.07614 0.105304,0.007 0.19161,0.142078 0.296917,0.149095 0.02979,0.002 0.05403,-0.03087 0.08104,-0.04631 0.0666,0.0045 0.13354,0.0023 0.199803,0.01332 0.08131,0.01354 0.156219,0.105741 0.237533,0.119276 0.05878,0.0098 0.161009,-0.05571 0.221455,-0.06281 0.131059,-0.0154 0.284625,0.22413 0.415683,0.208733 0.01266,-0.0015 0.0061,-0.704872 0.07611,-0.744854 0.0191,-0.01091 0.03845,0.03228 0.05938,0.02982 0.08178,-0.0096 0.139671,-0.05321 0.221456,-0.06281 0.09353,-0.01099 0.58853,0.237569 0.653217,0.328011 0.0488,0.06822 0.277022,0.367112 0.29134,0.40732 0.01581,0.0444 -0.01045,0.203045 -0.0056,0.258225 0.01231,0.139442 0.08889,0.112678 0.134844,0.241727 0.0337,0.09462 -0.02501,0.231258 -0.02723,0.334361 -0.0026,0.121729 0.03479,0.24245 0.03216,0.364179 -0.0015,0.07259 -0.07131,0.156507 -0.06496,0.228405 0.0067,0.07678 0.06868,0.135131 0.07546,0.211908 0.02064,0.233835 -0.153444,0.494382 -0.254262,0.655396 -0.06217,0.09929 -0.04609,0.281383 -0.108265,0.380676 -0.110382,0.176286 -0.366054,0.484553 -0.551177,0.506301 -0.294361,0.03458 -0.751227,-0.09262 -0.971786,-0.400969 -0.02895,-0.04048 -0.10098,-0.0097 -0.118766,-0.05964 -0.01744,-0.04898 0.06981,-0.173435 0.06496,-0.228404 -0.0034,-0.03839 -0.03434,-0.06757 -0.03773,-0.105958 -0.01887,-0.213625 0.282781,-0.524196 -0.04823,-0.546267 -0.145144,-0.0097 -0.25812,0.163806 -0.383528,0.155444 -0.04212,-0.0029 -0.0769,-0.06455 -0.118766,-0.05964 -0.05921,0.0069 -0.105034,0.07205 -0.162072,0.09264 -0.0451,0.01628 -0.09771,-0.0079 -0.14042,0.0165 -0.0191,0.01091 -0.0025,0.06522 -0.02166,0.07614 -0.06542,0.03739 -0.721975,-0.23978 -0.874671,-0.265197 -0.04686,-0.0078 -0.09333,0.01964 -0.140421,0.0165 -0.197952,-0.0132 -0.453878,-0.351429 -0.653216,-0.32801 -0.0296,0.0035 -0.05125,0.04831 -0.08104,0.04631 -0.242921,-0.0162 -1.389478,-0.697721 -1.722114,-0.864753 -0.208466,-0.104681 -1.099324,-0.472873 -1.187665,-0.596381 -0.141455,-0.197767 -0.0028,-0.467163 0.05446,-0.668719 0.159162,-0.559635 0.233572,-1.0599 0.395328,-1.628658 0.06161,-0.216637 0.295918,-0.826324 0.281489,-0.989757 -0.01397,-0.158278 -0.04659,-0.313422 -0.06988,-0.470132 z"
       id="path2107" />
    <path
       style="fill:#000080;stroke-width:5.14331"
       d="m 31.123856,33.172321 c 0.702495,0.117676 1.588518,-0.253488 2.201832,0.153987 0.09648,0.0641 0.390036,-0.09768 0.463544,0 0.02731,0.03629 -0.02731,0.117689 0,0.153985 0.07726,0.102657 0.386285,-0.102657 0.463542,0 0.04638,0.06163 0.06276,0.195683 0.231773,0.307972 0.277586,0.184423 0.808516,-0.152204 1.042971,-0.307972 0.172755,-0.114774 0.390038,0.05034 0.579431,0 0.05356,-0.01423 0.06703,-0.121522 0.115885,-0.153985 0.0691,-0.04591 0.162672,0.04591 0.231772,0 0.194125,-0.128972 0.893596,-0.5612 1.042974,-0.461955 0.338789,0.225087 0.532234,1.260443 0.695314,1.693836 0.03455,0.09182 -0.05462,0.235381 0,0.307971 0.02731,0.03629 0.08857,-0.03629 0.115887,0 0.06537,0.08686 -0.03088,0.492878 0,0.615941 0.112448,0.448248 0.231771,1.081123 0.231771,1.539851 0,0.334793 -0.09559,1.593801 0,1.84782 0.04886,0.129855 0.18291,0.178121 0.231772,0.307972 0.08299,0.220537 -0.03438,0.72424 0.115885,0.923911 0.02731,0.03629 0.09861,-0.04591 0.115888,0 0.03455,0.09182 -0.02443,0.21058 0,0.307969 0.01728,0.06886 0.09145,0.08906 0.115885,0.153987 0.03455,0.09182 -0.05463,0.235381 0,0.307968 0.02731,0.03629 0.08857,-0.03629 0.115885,0 0.07726,0.102666 -0.07726,0.20531 0,0.307972 0.02731,0.03629 0.09861,-0.0459 0.115886,0 0.05972,0.158712 -0.0083,0.285983 0.115887,0.61594 0.03455,0.09182 -0.05463,0.235381 0,0.307972 0.02731,0.03629 0.08857,-0.03629 0.115885,0 0.07726,0.102657 -0.07726,0.513283 0,0.61594 0.02731,0.03629 0.08857,-0.03629 0.115885,0 0.101575,0.134966 0.0022,0.999412 -0.115885,1.077895 -0.12158,0.08078 -0.486933,-0.122903 -0.579428,0 -0.02731,0.03629 0.03665,0.137754 0,0.153985 -0.146587,0.06492 -0.354286,-0.145177 -0.463545,0 -0.02731,0.03629 0.02731,0.117693 0,0.153987 -0.04378,0.05817 -0.764319,0.584793 -0.811202,0.61594 -0.111222,0.0739 -0.352253,-0.04929 -0.463542,0 -0.05183,0.02296 -0.06125,0.153985 -0.115886,0.153985 -0.07517,0 -0.326362,-0.531054 -0.347657,-0.61594 -0.02443,-0.09738 0.02443,-0.210583 0,-0.307972 -0.03455,-0.137729 -0.182911,-0.178117 -0.231773,-0.307969 -0.04977,-0.132269 -0.03151,-0.237728 -0.115886,-0.461955 -0.131471,-0.34939 0.01967,-1.02561 -0.115885,-1.385868 -0.15344,-0.407772 -0.311379,-0.827496 -0.463545,-1.23188 -0.08638,-0.229547 -0.211083,-0.434468 -0.347658,-0.61594 -0.02731,-0.03629 -0.103669,0.0487 -0.115885,0 -0.482662,-0.293883 -0.05663,-0.723594 -0.115885,-1.077899 -0.0691,-0.413183 -0.16267,-0.818694 -0.231772,-1.23188 -0.0078,-0.04662 0.04924,-0.681375 -0.115886,-0.461956 -2.03e-4,2.7e-4 -0.08166,0.98693 -0.115885,1.077897 -0.03858,0.10253 -0.377463,0.884309 -0.347658,0.923911 0.05794,0.07699 0.173829,0.07699 0.23177,0.153984 0.05463,0.07259 -0.05462,0.235382 0,0.307971 0.02515,0.03341 0.220476,0.123964 0.231773,0.153985 0.02208,0.05869 0.04487,1.018277 0,1.077895 -0.08334,0.110745 -1.267905,-0.07926 -1.506517,0 -0.451301,0.149921 -0.929643,0.37445 -1.39063,0.461957 -0.5848,0.111008 -1.262582,0 -1.854173,0 -0.326898,0 -2.497399,0.839143 -2.54949,0.769927 -0.08604,-0.114321 0,-1.02399 0,-1.231884 0,-0.163653 -0.01243,-1.677318 0,-1.693835 0.143474,-0.190644 1.471505,0.177247 1.738289,0 0.441033,-0.293015 0.262217,-0.656396 0.579428,-1.077897 0.115506,-0.15348 1.506898,0.153481 1.622402,0 0.02859,-0.03799 0.02859,-0.88592 0,-0.923911 -0.02731,-0.03629 -0.08857,0.03629 -0.115885,0 -0.05463,-0.07259 0.05463,-0.235382 0,-0.307968 -0.02731,-0.03629 -0.08857,0.03629 -0.115885,0 -0.05058,-0.0672 -0.291718,-0.775248 -0.347658,-0.923912 -0.13959,-0.370967 0.06042,-2.403214 0.115885,-2.771735 z"
       id="path1719" />
  </g>
</svg>
