<?xml version="1.0" encoding="UTF-8" standalone="no"?>
<!-- Created with Inkscape (http://www.inkscape.org/) -->

<svg
   width="512"
   height="512"
   viewBox="0 0 135.46666 135.46667"
   version="1.1"
   id="svg5"
   inkscape:version="1.2.1 (9c6d41e410, 2022-07-14)"
   sodipodi:docname="char_walk_3.svg"
   inkscape:export-filename="character.png"
   inkscape:export-xdpi="96"
   inkscape:export-ydpi="96"
   xmlns:inkscape="http://www.inkscape.org/namespaces/inkscape"
   xmlns:sodipodi="http://sodipodi.sourceforge.net/DTD/sodipodi-0.dtd"
   xmlns="http://www.w3.org/2000/svg"
   xmlns:svg="http://www.w3.org/2000/svg">
  <sodipodi:namedview
     id="namedview7"
     pagecolor="#505050"
     bordercolor="#eeeeee"
     borderopacity="1"
     inkscape:showpageshadow="0"
     inkscape:pageopacity="0"
     inkscape:pagecheckerboard="true"
     inkscape:deskcolor="#505050"
     inkscape:document-units="px"
     showgrid="false"
     inkscape:zoom="2.4630736"
     inkscape:cx="207.87036"
     inkscape:cy="133.57295"
     inkscape:window-width="1366"
     inkscape:window-height="697"
     inkscape:window-x="-8"
     inkscape:window-y="-8"
     inkscape:window-maximized="1"
     inkscape:current-layer="layer1" />
  <defs
     id="defs2" />
  <g
     inkscape:label="Layer 1"
     inkscape:groupmode="layer"
     id="layer1">
    <path
       style="fill:#ff9955;fill-opacity:1;stroke:none;stroke-width:1.69685;stroke-opacity:0.952941"
       d="m 37.913782,22.140919 c 0.109311,0.05767 0.263322,0.263872 0.327915,0.173014 0.0646,-0.09086 -0.454694,-0.170601 -0.327915,-0.173014 0.230737,-0.0044 0.441579,0.135151 0.670741,0.166488 0.03148,0.0043 0.0177,-0.06227 0.04845,-0.06814 0.06874,-0.01311 0.141533,0.01971 0.212405,0.01836 0.07088,-0.0014 0.108069,-0.09915 0.178872,-0.09303 0.119747,0.01035 0.480914,0.202717 0.540319,0.191376 0.03075,-0.0059 0.01741,-0.07464 0.04845,-0.06814 0.169138,0.0354 0.395623,0.287363 0.573855,0.302775 0.03165,0.0027 0.0177,-0.06227 0.04844,-0.06814 0.01307,-0.0025 0.24259,0.118613 0.245938,0.12976 0.04468,0.148425 -0.374322,0.385744 -0.387557,0.545148 -0.0095,0.114946 -0.0016,0.248999 -0.02982,0.359082 -0.02004,0.07833 -0.169047,0.125661 -0.145334,0.20443 0.0079,0.02626 0.07408,0.01699 0.08199,0.04326 0.01581,0.05251 -0.1127,0.08377 -0.09689,0.136287 0.0079,0.02625 0.07408,0.01699 0.08199,0.04326 0.02371,0.07877 -0.118223,0.127828 -0.145334,0.20443 -0.08217,0.23213 -0.12307,0.451541 -0.14162,0.674908 -0.0044,0.05353 -0.112701,0.08377 -0.09689,0.136288 0.0079,0.02625 0.05465,0.02884 0.08199,0.04326 0.418506,0.220811 1.011857,0.785871 1.509158,0.889964 0.04389,0.0092 0.08564,-0.02876 0.130428,-0.02489 0.08387,0.0073 0.163183,0.112435 0.245938,0.12976 0.228109,0.04774 0.496496,0.03629 0.719187,0.09834 0.06085,0.01695 0.101894,0.07352 0.163958,0.08651 0.04389,0.0092 0.08694,-0.01659 0.130428,-0.02489 0.0708,0.0061 0.144365,-5.92e-4 0.212404,0.01836 0.09127,0.02543 0.153716,0.147358 0.245938,0.129761 0.03074,-0.0059 0.01741,-0.07464 0.04844,-0.06815 0.155157,0.03247 0.254746,0.183788 0.409896,0.216268 0.04389,0.0092 0.08694,-0.01659 0.130428,-0.02489 0.09813,0.02054 0.198165,0.03481 0.294383,0.06161 0.118075,0.0329 0.209842,0.140114 0.327917,0.173014 0.08535,0.02379 0.251392,-0.01443 0.342826,-0.0065 0.198243,0.01714 0.375612,0.285635 0.573854,0.302775 0.01915,0.0017 0.159454,-0.678312 0.272043,-0.699799 0.03075,-0.0059 0.05032,0.04052 0.08199,0.04326 0.12371,0.0107 0.219116,-0.01722 0.342827,-0.0065 0.141482,0.01223 0.82483,0.372775 0.901771,0.47579 0.05804,0.07772 0.333815,0.42168 0.346541,0.463953 0.01405,0.04668 -0.05884,0.193277 -0.06336,0.247685 -0.01138,0.137491 0.108208,0.130369 0.149048,0.266049 0.02995,0.09948 -0.0865,0.216935 -0.111795,0.315829 -0.02987,0.116759 4.5e-5,0.242321 -0.02982,0.359081 -0.01781,0.06963 -0.139447,0.133539 -0.145334,0.20443 -0.0063,0.0757 0.07336,0.147092 0.06707,0.222795 -0.01914,0.230562 -0.333676,0.439354 -0.517984,0.570037 -0.113663,0.08059 -0.128564,0.260129 -0.242223,0.340717 -0.201791,0.143077 -0.647854,0.377981 -0.927876,0.35377 -0.445261,-0.03849 -1.097765,-0.272681 -1.360113,-0.623912 -0.03444,-0.0461 -0.14815,-0.03399 -0.163958,-0.08651 -0.0155,-0.05149 0.140831,-0.150229 0.145335,-0.20443 0.0031,-0.03785 -0.03668,-0.07355 -0.03354,-0.111401 0.01749,-0.210635 0.532435,-0.43654 0.04474,-0.538622 -0.213852,-0.04476 -0.418904,0.09498 -0.603674,0.05631 -0.06207,-0.01299 -0.10064,-0.08103 -0.163958,-0.08651 -0.08955,-0.0077 -0.171612,0.04386 -0.260848,0.04978 -0.07055,0.0047 -0.143662,-0.03148 -0.212404,-0.01836 -0.03075,0.0059 -0.0177,0.06227 -0.04845,0.06815 -0.105295,0.02009 -1.02287,-0.407479 -1.244598,-0.469263 -0.06805,-0.01896 -0.143014,-0.0038 -0.212405,-0.01836 -0.291655,-0.06104 -0.600246,-0.44972 -0.90177,-0.475789 -0.04478,-0.0039 -0.08654,0.03408 -0.130428,0.02489 -0.357911,-0.07492 -1.918187,-1.012068 -2.377394,-1.254354 -0.28779,-0.151842 -1.534504,-0.724391 -1.639583,-0.865071 -0.168256,-0.225264 0.09535,-0.451257 0.2236,-0.631657 0.356094,-0.500893 0.573456,-0.965212 0.935354,-1.474268 0.137846,-0.193897 0.616397,-0.724722 0.629781,-0.885867 0.01296,-0.156064 -0.0024,-0.313652 -0.0037,-0.470479 z"
       id="path2107-5"
       inkscape:export-filename="char_walk_3.png"
       inkscape:export-xdpi="96"
       inkscape:export-ydpi="96" />
    <path
       style="fill:#ff9955;fill-opacity:1;stroke:none;stroke-width:1.69685;stroke-opacity:0.952941"
       d="m 33.625048,22.862521 c 0.06409,-0.106544 0.128176,-0.213088 0.192265,-0.319632 0.03205,0 0.07348,0.01883 0.09614,0 0.04532,-0.03767 -0.02866,-0.112168 0,-0.159817 0.111656,-0.185629 0.370051,-0.295563 0.480662,-0.479448 0.01921,-0.03195 0.156369,-1.498018 0.09614,-1.598163 -0.115544,-0.19208 -0.433219,-0.220525 -0.576793,-0.39954 -0.128286,-0.159953 -0.380293,-0.312586 -0.480662,-0.479449 -0.02866,-0.04765 0.03298,-0.114136 0,-0.159816 -0.177621,-0.246073 -0.488253,-0.50469 -0.576795,-0.799081 -0.01554,-0.05168 0.02866,-0.112168 0,-0.159816 -0.04053,-0.06738 -0.14199,-0.09713 -0.192265,-0.159816 -0.290942,-0.362761 -0.380246,-1.021662 -0.192264,-1.438346 0.258575,-0.573161 0.819011,-1.559775 1.345853,-1.997703 0.28401,-0.236078 0.708417,-0.545094 1.057455,-0.719173 0.342869,-0.171002 0.03392,-0.0056 0.480662,-0.07991 0.579928,-0.09641 -0.07795,-0.03801 0.288397,-0.159816 0.396311,-0.131771 0.837793,-0.221802 1.24972,-0.319633 0.244938,-0.05817 0.437452,-0.17448 0.672926,-0.239724 0.480608,-0.133165 1.591127,-0.152473 2.114912,-0.07991 0.343553,0.04759 0.821231,0.646093 0.961322,0.878989 0.043,0.07147 -0.0304,0.163917 0,0.239724 0.01434,0.03574 0.07587,0.04622 0.09614,0.07991 0.04613,0.07669 -0.03077,0.242893 0,0.319632 0.04532,0.113007 0.139044,0.209032 0.192266,0.319632 0.0238,0.04946 -0.04532,0.122147 0,0.159817 0.02266,0.01883 0.086,-0.02527 0.09614,0 0.105085,0.262055 -0.09,0.247374 0.09614,0.479448 0.147235,0.183578 0.05492,-0.03426 0.288398,0.159816 0.07647,0.06357 0.123192,0.342127 0.192264,0.399541 0.02266,0.01884 0.07348,-0.01884 0.09614,0 0.02266,0.01884 -0.02266,0.06107 0,0.07991 0.04532,0.03767 0.163604,-0.04765 0.192265,0 0.02866,0.04765 -0.02866,0.112168 0,0.159816 0.043,0.07147 0.202413,-0.03574 0.288397,0 0.02866,0.01191 -0.02266,0.06107 0,0.07991 0.05572,0.04631 0.32881,0.113502 0.384528,0.159817 0.04419,0.03673 0.441764,0.591691 0.288398,0.719173 -0.1597,0.132747 -0.680844,0.348462 -0.86519,0.39954 -0.0912,0.02527 -0.220423,-0.0565 -0.288398,0 -0.0052,0.0043 -0.187056,0.235394 -0.192264,0.239724 -0.04532,0.03767 -0.146949,-0.03767 -0.192266,0 -0.06132,0.05097 -0.03024,0.748812 0,0.799082 0.08852,0.147162 0.605385,1.015039 0.38453,1.198621 -0.02266,0.01884 -0.06748,-0.01191 -0.09614,0 -0.229462,0.09537 -0.312696,0.326366 -0.576794,0.399541 -0.174601,0.04838 -0.985578,-0.05975 -1.057456,0 -0.02266,0.01883 0.01434,0.05608 0,0.07991 -0.106281,0.176681 -0.05966,0.0248 -0.192265,0.07991 -0.400079,0.166279 0.102776,-0.0055 -0.09614,0.159816 -0.198902,0.165333 0.0078,-0.25265 -0.192264,0.07991 -0.04738,0.07878 0.09389,0.877127 0.09614,0.87899 0.02266,0.01883 0.07348,-0.01884 0.09614,0 0.0898,0.07464 0.102474,0.324899 0.192265,0.39954 0.01499,0.01246 0.273404,0.147355 0.288397,0.159816 0.07612,0.06328 0.150617,0.4555 0.192264,0.559357 0.02327,0.05804 0.192503,0.319435 0.09614,0.39954 -0.02266,0.01884 -0.06748,-0.01191 -0.09614,0 -0.146644,0.06095 -0.241158,0.180137 -0.38453,0.239725 -0.17648,0.07335 -0.293283,-0.07585 -0.48066,0.07991 -0.02266,0.01883 0.02266,0.06107 0,0.07991 -0.04532,0.03767 -0.146948,-0.03767 -0.192265,0 -0.02266,0.01884 0.02266,0.06107 0,0.07991 -0.04407,0.03664 -0.626812,0 -0.769059,0 -0.632788,0 -1.5791,0.142783 -2.114911,-0.07991 -0.256354,-0.106544 -0.704971,0.106544 -0.961324,0 -0.166871,-0.06935 -0.209406,-0.142679 -0.384528,-0.239724 -0.0011,-6.38e-4 -0.989749,-0.02363 -1.057457,-0.07991 -0.145086,-0.1206 -0.256353,-0.266361 -0.384529,-0.399541 z"
       id="path298" />
    <path
       style="fill:#008000;fill-opacity:1;stroke:none;stroke-width:1.69685;stroke-opacity:0.952941"
       d="m 34.009577,23.262062 c 0.02246,-0.01672 1.66617,0.61267 2.307177,0.39954 0.107268,-0.03567 0.181123,-0.124148 0.288397,-0.159816 0.20905,-0.06951 0.391519,0.03705 0.672925,-0.07991 0.374133,-0.155495 1.361267,0.15341 1.730383,0 0.02866,-0.01191 -0.02266,-0.06107 0,-0.07991 0.04532,-0.03767 0.146947,0.03767 0.192264,0 0.02266,-0.01884 -0.02266,-0.06107 0,-0.07991 0.03205,-0.02664 0.256353,-0.05327 0.288398,-0.07991 0.02266,-0.01883 -0.02266,-0.06107 0,-0.07991 0.04807,-0.03995 0.240329,0.03995 0.288395,0 0.02266,-0.01883 -0.02266,-0.06107 0,-0.07991 0.04532,-0.03767 0.146948,0.03767 0.192265,0 0.02266,-0.01884 -0.02266,-0.06107 0,-0.07991 0.0857,-0.07123 0.282435,-0.03748 0.38453,-0.07991 0.04053,-0.01685 0.05082,-0.07991 0.09614,-0.07991 0.03205,0 -0.02266,0.06107 0,0.07991 0.02266,0.01884 0.07348,-0.01883 0.09614,0 0.02781,0.02312 0.246219,0.329421 0.288396,0.399541 0.142236,0.236459 0.334969,0.476963 0.480662,0.719173 0.12869,0.213941 0.240236,0.558878 0.288397,0.799081 0.02108,0.105094 -0.02514,0.215157 0,0.319632 -0.02206,0.160467 0.150412,0.260384 0.192265,0.39954 0.05999,0.199469 -0.04843,0.437986 0,0.639265 0.109915,0.456825 0.292015,0.897036 0.384529,1.358438 0.0725,0.361623 0.148314,0.151812 0.288397,0.559357 0.02641,0.07683 -0.01885,0.161368 0,0.239724 0.01406,0.0584 0.06409,0.106544 0.09614,0.159817 0.03205,0.13318 0.07809,0.264553 0.09614,0.39954 0.01415,0.105893 -0.01813,0.214159 0,0.319633 0.01434,0.08338 0.07948,0.156639 0.09614,0.239724 0.03161,0.157642 -0.08598,0.336504 0,0.479448 0.12787,0.212577 0.301133,-0.077 0.192265,0.239724 -0.08223,0.239245 -0.3009,0.430723 -0.38453,0.639266 -0.02027,0.05054 0.02866,0.112168 0,0.159815 -0.0759,0.126198 -0.327578,0.257523 -0.384528,0.399541 -0.07842,0.19556 -0.09492,1.1177 -0.09614,1.118714 -0.0041,0.0034 -0.566457,0.317484 -0.576793,0.319632 -0.06217,0.01292 -0.134943,-0.02382 -0.192266,0 -0.08107,0.03369 -0.111203,0.126125 -0.192265,0.159816 -0.05732,0.02382 -0.130089,-0.01292 -0.192264,0 -0.139027,0.02889 -0.244007,0.136456 -0.384529,0.159817 -0.580304,0.09647 0.02447,-0.15197 -0.672926,0.07991 -0.15589,0.05183 -0.303499,0.190636 -0.480662,0.239724 -0.232518,0.06442 -1.672911,0.0073 -1.730382,0 -0.170556,-0.02181 -0.31145,-0.131685 -0.480662,-0.159816 -0.221063,-0.03675 -1.071062,-0.01131 -1.24972,-0.159816 -0.02266,-0.01884 0.02266,-0.06107 0,-0.07991 -0.06902,-0.05737 -0.670138,0 -0.769059,0 -0.626127,0 -0.564965,-0.04401 -1.153588,-0.239724 -0.132871,-0.04418 -0.858029,0.0059 -0.961324,-0.07991 -0.185127,-0.153884 -0.09614,-2.093533 -0.09614,-2.317335 0,-0.106544 -0.02107,-0.214538 0,-0.319632 0.01178,-0.05875 0.07348,-0.103313 0.09614,-0.159817 0.09626,-0.240061 -0.06021,-0.548855 0,-0.799081 0.0541,-0.224872 0.05503,-0.417176 0.09614,-0.639264 0.121485,-0.656382 0.384529,-1.33152 0.384529,-1.997703 0,-0.652714 -0.0014,-1.269704 0.09614,-1.917795 0.01606,-0.106803 -0.05691,-0.304924 0,-0.399541 0.0701,-0.116539 0.153785,-0.12783 0.192265,-0.159815 0.03362,-0.02794 0.180895,-0.671927 0.192264,-0.719173 z"
       id="path1793" />
    <path
       style="fill:#e3dbdb;fill-opacity:1;stroke:none;stroke-width:1.69685;stroke-opacity:0.952941"
       d="m 41.388981,39.251293 c -0.59341,0.882736 -0.864779,1.053681 0.165508,1.742457 0.101185,0.06765 0.238817,0.09096 0.333132,0.165452 0.223679,0.176678 0.393843,0.39716 0.610567,0.579952 0.412211,0.347669 0.878638,0.696872 1.313791,1.021448 0.483096,0.360334 1.729019,0.858727 2.331933,1.158169 0.192921,0.09582 0.806732,0.511063 1.045728,0.427128 0.126125,-0.04429 1.284305,-1.145411 1.222724,-1.329689 -0.0087,-0.02607 -0.06875,-0.01709 -0.08329,-0.04136 -0.0411,-0.06865 -0.01894,-0.15963 -0.07391,-0.221182 -0.373044,-0.417763 -2.385876,-1.277199 -3.118437,-1.64103 -0.199436,-0.09905 -0.517917,-0.190001 -0.666267,-0.330905 -0.0072,-0.0068 0.0079,-0.151964 0.0094,-0.179821 0.007,-0.134028 -0.133998,-0.247225 -0.194153,-0.373133 -0.426028,-0.13266 0.0038,-0.196425 -0.02758,-0.290411 -0.0087,-0.02607 -0.06182,-0.02101 -0.08329,-0.04136 -0.449272,-0.426745 -0.72757,-0.299333 -1.341904,-0.481992 -0.0605,-0.018 -0.103101,-0.07869 -0.166568,-0.08273 -0.03174,-0.002 -0.01577,0.06266 -0.04633,0.06923 -0.15026,0.03231 -0.527797,-0.283211 -0.712595,-0.261676 -0.177201,0.02064 -0.345626,0.0743 -0.518443,0.111456 z"
       id="path2040" />
    <path
       style="fill:#e3dbdb;fill-opacity:1;stroke:none;stroke-width:1.69685;stroke-opacity:0.952941"
       d="m 31.606269,43.478812 c 0.664208,0.241755 1.404401,0.304011 2.018779,0.559359 0.11465,0.04765 0.26018,-0.02583 0.384529,0 0.04396,0.0091 0.05314,0.068 0.09614,0.07991 0.330047,0.09145 1.135238,0 1.538117,0 0.584143,0 1.252715,-0.06813 1.826514,0 0.727331,0.08637 0.176807,0.07991 0.480662,0.07991 0.25174,0 0.765051,-0.08157 0.961324,0 0.08107,0.03369 0.111203,0.126124 0.192265,0.159817 0.07282,0.03026 0.432418,-2.66e-4 0.48066,0.07991 0.09787,0.162701 0,0.532513 0,0.719174 0,0.06977 0.07385,0.577881 0,0.639264 -0.02266,0.01884 -0.06409,0 -0.09614,0 0,0.05327 0.02866,0.112169 0,0.159817 -0.01434,0.02381 -0.06748,-0.01191 -0.09614,0 -0.103344,0.04295 -0.195968,0.102192 -0.288396,0.159815 -0.107675,0.06712 -0.18073,0.172603 -0.288398,0.239725 -0.19198,0.119685 -0.463198,0.312375 -0.672926,0.39954 -0.02866,0.01191 -0.07348,-0.01884 -0.09614,0 -0.02266,0.01884 0.02266,0.06107 0,0.07991 -0.173225,0.14399 -0.930464,0.07991 -1.153588,0.07991 -0.26737,0 -0.607315,0.05359 -0.865191,0 -0.949304,-0.197272 -1.854125,-0.577331 -2.787838,-0.799081 -0.165922,-0.0394 -0.313251,-0.125027 -0.480661,-0.159815 -0.203322,-0.04225 -0.783651,0.123427 -0.865192,-0.07991 -0.05768,-0.143836 0.05768,-0.335615 0,-0.479451 -0.01432,-0.03574 -0.07587,-0.04622 -0.09614,-0.07991 -0.01434,-0.02381 0.02266,-0.06107 0,-0.07991 -0.02266,-0.01884 -0.0818,0.02381 -0.09614,0 -0.366342,-0.609033 0.599506,0.467812 -0.09614,-0.399542 -0.01777,-0.02217 -0.07348,0.01884 -0.09614,0 -0.04398,-0.03655 -0.03213,-0.585844 0,-0.639265 0.02027,-0.03369 0.0818,-0.04417 0.09614,-0.07991 0.08107,-0.202152 0,-0.426175 0,-0.639264 z"
       id="path2105" />
    <path
       style="fill:#ff9955;fill-opacity:1;stroke:none;stroke-width:1.69685;stroke-opacity:0.952941"
       d="m 36.195572,26.332956 c 0.121138,-0.03609 0.403835,-0.0075 0.363454,-0.108169 -0.04041,-0.100695 -0.441834,0.194066 -0.363454,0.108169 0.142677,-0.156282 0.401726,-0.207871 0.575427,-0.3404 0.02384,-0.01823 -0.04457,-0.05135 -0.03025,-0.07554 0.03191,-0.05407 0.107604,-0.08162 0.15142,-0.129632 0.04382,-0.048 -0.0202,-0.134895 0.03027,-0.178103 0.08537,-0.07308 0.48728,-0.191103 0.514862,-0.237827 0.01427,-0.02418 -0.05583,-0.05901 -0.03025,-0.07554 0.139204,-0.09002 0.508952,-0.08058 0.636018,-0.18935 0.02258,-0.01932 -0.04456,-0.05135 -0.03025,-0.07554 0.006,-0.0103 0.260463,-0.086 0.272571,-0.08117 0.161427,0.06459 0.107906,0.49411 0.242363,0.604206 0.09697,0.07939 0.222128,0.159322 0.302906,0.248004 0.05748,0.0631 0.0052,0.192299 0.09087,0.226583 0.02855,0.01142 0.06231,-0.03848 0.09085,-0.02709 0.05711,0.02285 0.0035,0.128201 0.06062,0.151045 0.02856,0.01143 0.06231,-0.03848 0.09085,-0.02709 0.08567,0.03427 0.03945,0.159869 0.09087,0.226584 0.155848,0.202162 0.326526,0.368786 0.514949,0.523056 0.04516,0.03697 0.0035,0.1282 0.06062,0.151044 0.02856,0.01143 0.06059,-0.018 0.09085,-0.02709 0.463841,-0.138094 1.347342,-0.173748 1.756635,-0.438419 0.03612,-0.02336 0.02864,-0.07524 0.06057,-0.102583 0.05979,-0.05118 0.204466,-0.03711 0.272568,-0.08117 0.18774,-0.121403 0.348011,-0.307216 0.545132,-0.415924 0.05386,-0.0297 0.130641,-0.02107 0.181727,-0.05408 0.03612,-0.02336 0.04037,-0.06838 0.06057,-0.102583 0.05047,-0.04321 0.0912,-0.09641 0.151421,-0.129632 0.0808,-0.04456 0.229756,-0.0086 0.272571,-0.08117 0.01428,-0.02418 -0.05583,-0.05901 -0.03025,-0.07554 0.127697,-0.08257 0.326607,-0.05267 0.4543,-0.135247 0.03612,-0.02336 0.04037,-0.06838 0.06057,-0.102583 0.08077,-0.05223 0.157112,-0.10971 0.242283,-0.156674 0.104517,-0.05764 0.258926,-0.05056 0.363454,-0.108168 0.07556,-0.04167 0.146803,-0.176399 0.211986,-0.232201 0.14133,-0.120984 0.494691,-0.06837 0.63602,-0.18935 0.01365,-0.01171 -0.506668,-0.537082 -0.454385,-0.625631 0.01428,-0.02417 0.06828,-0.0077 0.09085,-0.02709 0.0882,-0.07549 0.123792,-0.156703 0.211987,-0.2322 0.100861,-0.08635 0.858235,-0.311823 0.99946,-0.297547 0.106537,0.01077 0.590073,0.04588 0.636048,0.06428 0.05076,0.02031 0.135856,0.16195 0.181754,0.199525 0.115974,0.09496 0.185608,0.01086 0.333172,0.0699 0.108197,0.04329 0.139479,0.195388 0.212048,0.275051 0.08568,0.09406 0.217228,0.153945 0.302906,0.248004 0.05109,0.05609 0.03108,0.177614 0.09087,0.226584 0.06387,0.05229 0.178455,0.04467 0.242313,0.09695 0.194492,0.15924 0.181784,0.501138 0.181803,0.706781 1.6e-5,0.126813 0.151473,0.250812 0.151478,0.377629 2e-5,0.225149 -0.07286,0.671136 -0.272496,0.842029 -0.317428,0.271733 -0.941945,0.556983 -1.423462,0.508322 -0.06322,-0.0064 -0.124604,0.07696 -0.181727,0.05408 -0.05601,-0.02241 -0.04518,-0.189141 -0.09087,-0.226583 -0.03193,-0.02614 -0.08924,-0.02234 -0.121163,-0.04848 -0.177683,-0.145476 -0.05297,-0.631567 -0.454357,-0.372003 -0.176006,0.113813 -0.181046,0.339013 -0.333114,0.437351 -0.05109,0.03303 -0.136575,0.01545 -0.181727,0.05408 -0.06385,0.05465 -0.06974,0.142025 -0.121129,0.205151 -0.04063,0.04991 -0.119502,0.07556 -0.151419,0.129631 -0.01428,0.02417 0.04456,0.05135 0.03025,0.07554 -0.0489,0.08281 -1.01518,0.42151 -1.211447,0.529748 -0.06022,0.03321 -0.09431,0.09269 -0.151426,0.129623 -0.240037,0.155226 -0.784499,0.113533 -0.99946,0.297546 -0.03192,0.02733 -0.02443,0.07922 -0.06057,0.102583 -0.294574,0.190484 -2.125985,0.632926 -2.634939,0.784443 -0.318958,0.09498 -1.624335,0.560488 -1.817199,0.540999 -0.30882,-0.03121 -0.343884,-0.350163 -0.424087,-0.550106 -0.222692,-0.555155 -0.500762,-0.99478 -0.727085,-1.558985 -0.08624,-0.214891 -0.257914,-0.870536 -0.393854,-0.981831 -0.131645,-0.107785 -0.282706,-0.197652 -0.42406,-0.296479 z"
       id="path2107" />
    <path
       style="fill:#000080;stroke-width:6.27134"
       d="m 32.84448,32.977936 c 0.424176,0.253574 1.176786,0.08728 1.620989,0.214839 0.903189,0.259363 -0.19659,-0.03097 0.374073,0.214842 0.275211,0.118544 1.381723,0 1.745678,0 0.959221,0 2.225033,0.148799 3.117283,-0.107421 0.215171,-0.06179 0.547771,0.08631 0.748148,0 0.256282,-0.110392 0.489503,-0.210852 0.748148,-0.32226 0.07703,-0.03318 0.452547,-0.0676 0.498766,-0.107421 0.02939,-0.02532 -0.02939,-0.0821 0,-0.107421 0.05878,-0.05063 0.190605,0.05064 0.249382,0 0.02939,-0.02532 -0.02939,-0.0821 0,-0.107418 0.01944,-0.01675 0.479334,-0.01675 0.498766,0 0.02939,0.02532 -0.02939,0.0821 0,0.107418 0.25799,0.222258 -0.0101,-0.339635 0.249381,0.107421 0.01858,0.03203 -0.02939,0.0821 0,0.107421 0.02939,0.02532 0.0953,-0.02532 0.124693,0 0.02939,0.02532 -0.01858,0.07539 0,0.107418 0.259467,0.447059 -0.0086,-0.114834 0.249385,0.107421 0.02939,0.02532 -0.02939,0.0821 0,0.107421 0.05878,0.05064 0.1906,-0.05064 0.249381,0 0.02939,0.02532 -0.03718,0.09141 0,0.107421 0.106224,0.04575 0.403048,0.02495 0.498766,0.107418 0.02939,0.02532 -0.02939,0.0821 0,0.107421 0.02939,0.02532 0.08751,-0.01601 0.12469,0 0.105144,0.04529 0.137855,0.182814 0.249384,0.214839 0.07886,0.02265 0.17503,-0.03202 0.249381,0 0.03718,0.01601 -0.02939,0.0821 0,0.107421 0.02939,0.02532 0.0953,-0.02532 0.124693,0 0.06572,0.05662 0.05897,0.158223 0.124689,0.214839 0.06572,0.05662 0.183666,0.05081 0.249385,0.107421 0.02939,0.02532 -0.01858,0.07539 0,0.10742 0.105144,0.181169 0.315168,0.303147 0.498763,0.429678 0.07257,0.05002 0.183666,0.05081 0.249385,0.107421 0.151873,0.130837 0.05841,0.239998 0.249382,0.32226 0.03718,0.01601 0.08312,0 0.124692,0 0.08312,0.03581 0.172051,0.06301 0.249382,0.107421 0.209556,0.120354 0.401905,0.334248 0.623458,0.429678 0.03718,0.01601 0.0953,-0.02532 0.124689,0 0.02939,0.02532 -0.02939,0.0821 0,0.107421 0.08313,0.07162 0.41564,-0.07161 0.498767,0 0.03493,0.03009 0.02553,0.493154 0,0.537101 -0.04157,0.07161 -0.207819,0.03581 -0.249382,0.107418 -0.03718,0.06405 0.04611,0.155255 0,0.214842 -0.05155,0.06662 -0.183666,0.0508 -0.249385,0.107418 -0.06572,0.05662 -0.07313,0.148223 -0.124689,0.214842 -0.05155,0.06662 -0.05897,0.158223 -0.124693,0.214839 -0.07661,0.066 -0.290569,0.07097 -0.374074,0.214839 -0.153555,0.26457 0.361946,-0.09697 -0.124691,0.32226 -0.02939,0.02532 -0.0953,-0.02532 -0.12469,0 -0.257994,0.222258 0.394242,-0.0087 -0.124692,0.214842 -0.03718,0.01601 -0.106107,-0.03203 -0.124692,0 -0.04685,0.08072 -0.04792,0.470961 -0.124693,0.537098 -0.02939,0.02532 -0.0953,-0.02532 -0.124689,0 -0.09294,0.08007 -0.03176,0.242195 -0.124692,0.32226 -0.06572,0.05662 -0.183664,0.05081 -0.249382,0.107421 -0.05878,0.05064 0.03717,0.150786 0,0.214839 -0.08801,0.151638 -0.245459,0.159441 -0.374074,0.214842 -0.199671,0.08601 -0.286184,0.353962 -0.374074,0.429678 -0.02939,0.02532 -0.09976,-0.02864 -0.124693,0 -0.111528,0.128106 -0.133263,0.304638 -0.249381,0.42968 -0.05806,0.06252 -0.19362,0.04337 -0.249384,0.107421 -0.156315,0.179552 -0.174397,0.472501 -0.374074,0.64452 -0.02939,0.02532 -0.0953,-0.02532 -0.124689,0 -0.02939,0.02532 0.02939,0.0821 0,0.107418 -0.06119,0.05271 -0.485097,-0.203062 -0.498767,-0.214839 -0.04157,-0.03581 -0.08313,-0.286454 -0.124692,-0.32226 -0.02939,-0.02532 -0.08312,0 -0.124693,0 -0.04157,-0.03581 -0.09208,-0.06529 -0.124689,-0.10742 -0.07594,-0.09813 -0.106432,-0.260687 -0.249385,-0.32226 -0.307108,-0.132284 0.112561,0.311811 -0.374073,-0.107419 -0.02939,-0.02532 0.02939,-0.0821 0,-0.10742 -0.14695,-0.126596 -0.312885,-0.242195 -0.498764,-0.32226 -0.234685,-0.10109 -0.478916,-0.0513 -0.374073,-0.32226 0.130911,-0.338339 0.34513,-0.379812 0.498763,-0.64452 0.01858,-0.03203 -0.02939,-0.0821 0,-0.107421 0.06572,-0.05662 0.183666,-0.05081 0.249384,-0.10742 0.05878,-0.05064 -0.03718,-0.150786 0,-0.214839 0.02521,-0.04347 0.725974,-0.74239 0.748148,-0.751941 0.03717,-0.01601 0.0953,0.02532 0.124689,0 0.02939,-0.02532 -0.02939,-0.0821 0,-0.107418 0.02939,-0.02532 0.0953,0.02532 0.124693,0 0.02181,-0.01879 -0.3551,-0.520756 -0.374074,-0.537102 -0.171025,-0.147336 -1.070419,-0.214839 -1.371603,-0.214839 -0.246771,0 -1.104621,-0.122584 -1.246915,0 -0.06587,0.05675 -0.308202,0.480351 -0.374074,0.537099 -0.02939,0.02532 -0.08751,-0.01601 -0.124691,0 -0.07024,0.03026 -0.333248,0.359341 -0.374074,0.429681 -0.03764,0.06486 0.05764,0.272603 0,0.32226 -0.02939,0.02532 -0.0953,-0.02532 -0.124693,0 -0.151289,0.130333 0.0913,0.995555 -0.249381,1.289039 -0.277601,0.239149 -0.234087,0.557866 -0.374074,0.859361 -0.0987,0.212564 -0.335331,0.288883 -0.498767,0.429679 -0.06235,0.05371 0.06235,0.268552 0,0.322259 -0.02939,0.02532 -0.0953,-0.02532 -0.124689,0 -0.107558,0.09266 -0.27596,0.625155 -0.374074,0.751941 -0.02307,0.0298 -0.0953,-0.02532 -0.124693,0 -0.06572,0.05662 -0.08312,0.143227 -0.124691,0.214842 -0.153553,0.26457 0.361945,-0.09697 -0.12469,0.322259 -0.0512,0.04411 -0.291326,0.108392 -0.374077,0.32226 -0.05077,0.131218 -0.01582,0.658138 -0.124689,0.751938 -0.02939,0.02532 -0.0953,-0.02532 -0.124692,0 -0.02939,0.02532 0.02939,0.0821 0,0.107421 -0.02939,0.02532 -0.08526,-0.01132 -0.124693,0 -0.08817,0.02532 -0.161212,0.0821 -0.249381,0.107421 -0.07886,0.02265 -0.190601,-0.05064 -0.249382,0 -0.02939,0.02532 0.02939,0.0821 0,0.107418 -0.01068,0.0092 -1.514366,0 -1.620988,0 -0.646327,0 -1.098355,0.01029 -1.620987,-0.214839 -0.03718,-0.01601 -0.0953,0.02532 -0.124693,0 -0.02939,-0.02532 0.01314,-0.07345 0,-0.107421 -0.07567,-0.195582 -0.173703,-0.341513 -0.249381,-0.537099 -0.140175,-0.362275 0,-0.897866 0,-1.289039 0,-0.721781 -0.01149,-1.366814 0.249381,-2.04098 0.139557,-0.360675 0.104738,-0.807786 0.249384,-1.181621 0.118292,-0.305721 0,-0.64452 0,-0.96678 0,-0.632309 0.04273,-1.190649 0.12469,-1.826138 0.01713,-0.132808 -0.08908,-0.567777 0,-0.64452 0.02939,-0.02532 0.0953,0.02532 0.124692,0 0.180457,-0.155461 0.02243,-0.57572 0.124692,-0.75194 0.06701,-0.115454 0.182374,-0.09939 0.249382,-0.214839 0.124293,-0.214154 -0.186322,-0.64329 -0.249382,-0.751941 z"
       id="path6323" />
  </g>
</svg>
