<?xml version="1.0" encoding="UTF-8" standalone="no"?>
<!-- Created with Inkscape (http://www.inkscape.org/) -->

<svg
   width="512"
   height="512"
   viewBox="0 0 135.46666 135.46667"
   version="1.1"
   id="svg5"
   inkscape:version="1.2.1 (9c6d41e410, 2022-07-14)"
   sodipodi:docname="character2d.svg"
   xmlns:inkscape="http://www.inkscape.org/namespaces/inkscape"
   xmlns:sodipodi="http://sodipodi.sourceforge.net/DTD/sodipodi-0.dtd"
   xmlns="http://www.w3.org/2000/svg"
   xmlns:svg="http://www.w3.org/2000/svg">
  <sodipodi:namedview
     id="namedview7"
     pagecolor="#505050"
     bordercolor="#eeeeee"
     borderopacity="1"
     inkscape:showpageshadow="0"
     inkscape:pageopacity="0"
     inkscape:pagecheckerboard="true"
     inkscape:deskcolor="#505050"
     inkscape:document-units="px"
     showgrid="false"
     inkscape:zoom="0.71401212"
     inkscape:cx="200.27671"
     inkscape:cy="253.4971"
     inkscape:window-width="1366"
     inkscape:window-height="697"
     inkscape:window-x="-8"
     inkscape:window-y="-8"
     inkscape:window-maximized="1"
     inkscape:current-layer="layer1" />
  <defs
     id="defs2">
    <inkscape:path-effect
       effect="spiro"
       id="path-effect302"
       is_visible="true"
       lpeversion="1" />
  </defs>
  <g
     inkscape:label="Layer 1"
     inkscape:groupmode="layer"
     id="layer1">
    <path
       style="fill:#ff9955;stroke-width:4.97681"
       d="m 45.867256,44.14828 c 0.494611,-0.09744 3.339336,-0.868874 3.744657,-1.286693 0.156028,-0.160836 0.156028,-0.482509 0.312065,-0.643346 0.147102,-0.151638 0.477002,0.151638 0.624104,0 0.07352,-0.07582 -0.07352,-0.245855 0,-0.321674 0.208037,-0.214448 1.040179,0.214451 1.248216,0 0.0909,-0.0937 0.262624,-0.668824 0.936169,-0.321671 0.669663,0.345149 0.0144,0.351281 0.312056,0.965019 0.0304,0.06272 0.556398,0.251874 0.624113,0.321672 0.156028,0.160836 -0.156028,0.804184 0,0.965019 0.124903,0.128758 0.396554,0.174211 0.624104,0.643348 0.142798,0.29439 -0.211726,1.068436 0,1.286691 0.07352,0.07582 0.238505,-0.07582 0.312056,0 0.104019,0.107225 0.208037,0.857796 0.312056,0.965019 0.180871,0.186442 1.067354,0.456907 1.248225,0.643346 0.32164,0.331552 -0.0096,1.92016 0.312048,2.251712 0.268055,0.276311 2.029637,0 2.496441,0 1.84608,0 2.126591,0.152501 4.056723,-0.643345 0.698817,-0.288145 1.826846,0.345113 2.496432,0 0.36351,-0.187356 0.572668,-0.455992 0.936169,-0.643347 0.186075,-0.09591 0.477002,0.151638 0.624113,0 0.07352,-0.07582 -0.07352,-0.245854 0,-0.321672 0.04758,-0.04905 2.948011,0 3.432601,0 0.648585,0 0.333471,0.02208 0.624113,0.321672 0.131387,0.135441 2.453855,0.0439 2.496441,0 0.07352,-0.07582 -0.07352,-0.245854 0,-0.321672 0.108145,-0.111484 1.194438,-0.53248 1.248216,-0.643348 0.09304,-0.191807 -0.09304,-0.451537 0,-0.643346 0.04606,-0.0949 2.618574,-1.28669 2.808498,-1.28669 0.127093,0 1.209293,-0.08026 1.248216,0 0.09304,0.191806 -0.09304,0.451536 0,0.643345 0.104019,0.214449 0.520094,0.107223 0.624113,0.321672 0.09421,0.194218 -0.144256,0.816323 0,0.965019 0.07352,0.07582 0.238505,-0.07582 0.312056,0 0.208037,0.21445 -0.208038,1.072244 0,1.286693 0.290641,0.299597 0.312056,-0.02523 0.312056,0.643346 0,0.814658 1.186051,2.701552 0.624104,3.860078 -0.10401,0.214448 -0.147582,0.47381 -0.312048,0.643345 -0.14711,0.151638 -0.438037,-0.0959 -0.624112,0 -0.804411,0.414602 -3.302536,2.385795 -3.744658,1.930039 -0.07352,-0.07582 0.07352,-0.245852 0,-0.321672 -0.241276,-0.248714 -1.052415,-0.441504 -1.248225,-0.643347 -0.147101,-0.151638 0.147102,-0.491707 0,-0.643346 -0.0571,-0.05882 -4.984284,0 -5.616986,0 -1.366013,0 -0.591245,0.143896 -0.936169,0.321674 -0.249647,0.128668 -0.686522,-0.128671 -0.93616,0 -0.556347,0.286742 -1.207711,0.472068 -1.872338,0.643346 -1.441272,0.371424 -2.932626,-0.171798 -4.36877,0.321673 -1.140997,0.392055 -4.387145,-0.47304 -5.30493,0 -0.567632,0.29256 -1.438452,0.899656 -2.184385,0.643346 -0.963892,-0.331198 -2.071348,-1.375324 -2.496442,-2.251713 -0.04648,-0.0959 0.07352,-0.245852 0,-0.321672 -0.156028,-0.160837 -0.468084,-0.160837 -0.624112,-0.321673 -0.416075,-0.428897 0.661974,-0.308665 -0.312056,-0.643346 -0.19736,-0.06781 -0.477003,0.151638 -0.624113,0 -0.147101,-0.151638 0.09304,-0.451539 0,-0.643348 -0.0304,-0.06272 -0.556397,-0.251875 -0.624104,-0.321672 -0.205932,-0.212275 -0.44085,-1.031403 -0.936168,-1.286692 -0.09304,-0.04795 -0.238506,0.07582 -0.312057,0 -0.07352,-0.07582 0.05769,-0.232458 0,-0.321672 -0.163194,-0.252344 -0.460909,-0.391008 -0.624104,-0.643348 -0.115404,-0.17843 0.09304,-0.451537 0,-0.643346 -0.199784,-0.411887 -0.485423,-0.85779 -0.624112,-1.286693 -0.16391,-0.506869 0.0747,-1.209687 -0.312056,-1.608365 -0.07352,-0.07582 -0.238506,0.07582 -0.312056,0 -0.367763,-0.379096 0,-1.072243 0,-1.608365 z"
       id="path501-2" />
    <path
       style="fill:#ff9955;stroke-width:4.97681"
       d="m 36.811502,37.851355 c 0.208037,-0.428897 0.366072,-0.887705 0.624109,-1.286691 0.360014,-0.556665 0.956965,-1.007899 1.248222,-1.608368 0.09304,-0.191808 -0.147104,-0.491707 0,-0.643345 0.07355,-0.07582 0.238504,0.07582 0.312055,0 0.08466,-0.08727 0.193739,-1.124076 0.312054,-1.286694 0.55984,-0.769456 0.929539,-1.587872 1.248221,-2.573384 0.20486,-0.633522 0,-1.589486 0,-2.25171 0,-0.321674 0.173097,-0.69737 0,-0.96502 -0.163198,-0.25234 -0.492537,-0.372088 -0.62411,-0.643345 -0.151319,-0.311966 -0.375906,-1.740003 -0.624111,-2.251713 -0.238967,-0.492668 -0.556087,-0.251553 -0.936165,-0.643347 -0.292564,-0.301582 -0.520961,-1.001358 -0.936166,-1.286692 -0.55721,-0.382923 -1.552614,-0.627554 -1.872328,-1.286692 -0.09304,-0.191809 0.147103,-0.491708 0,-0.643347 -0.07355,-0.07582 -0.238503,0.07582 -0.312055,0 -0.294209,-0.303276 0,-0.857794 0,-1.286692 0,-0.544577 0.231157,-1.775145 0,-2.251711 -0.06579,-0.135629 -0.276377,-0.174563 -0.312056,-0.321674 -0.16169,-0.66669 -0.157501,-2.567309 0,-3.216731 0.194514,-0.802031 1.304375,-3.274617 1.87233,-3.8600768 0.389721,-0.4017331 2.265454,-0.7784263 2.808496,-0.9650192 0.139555,-0.047952 0.1725,-0.2737209 0.312055,-0.3216732 0.19736,-0.067815 0.420113,0.042057 0.62411,0 0.950642,-0.1959883 1.875613,-0.6902663 2.808496,-0.9650192 0.608374,-0.1791787 1.27208,-0.1154229 1.872331,-0.321673 0.139553,-0.047953 0.172497,-0.273721 0.312053,-0.3216733 0.904433,-0.3107692 2.441417,0 3.432605,0 0.64672,0 4.240155,-0.2271272 4.680827,0 0.09304,0.047953 -0.0577,0.2324572 0,0.3216733 0.163198,0.2523411 0.379313,0.4751187 0.624109,0.6433459 0.724399,0.4978179 -0.09563,-1.4838601 0.936165,0.6433463 0.09304,0.1918088 -0.05045,0.4353005 0,0.6433462 0.187268,0.7721591 0.719431,1.581466 0.936165,2.251712 0.06579,0.203444 -0.09304,0.451537 0,0.643346 0.04652,0.09591 0.238504,-0.07582 0.312057,0 0.07355,0.07582 -0.07355,0.245854 0,0.321673 0.164467,0.169536 0.520089,0.107224 0.624109,0.321673 0.139555,0.287713 -0.07568,0.652951 0,0.965019 0.09824,0.405064 0.747838,0.898433 0.936165,1.286693 0.134021,0.276305 0.08486,0.496613 0.312056,0.96502 1.268334,2.614853 4.056714,0.304421 4.056714,3.538403 0,0.132454 0.0826,0.879871 0,0.96502 -0.147104,0.151638 -0.438035,-0.0959 -0.624109,0 -0.847814,0.436972 -1.648628,0.84972 -2.49644,1.286692 -0.188411,0.09711 -0.791915,-0.148698 -0.936165,0 -0.07355,0.07582 0.07355,0.245854 0,0.321673 -0.174764,0.18015 -0.475836,0.18481 -0.624112,0.643346 -0.14392,0.445074 0.230979,2.168137 0.312056,2.251713 0.07355,0.07582 0.238504,-0.07582 0.312056,0 0.312053,0.321672 -0.312056,1.608365 0,1.930039 0.07355,0.07582 0.238501,-0.07582 0.312053,0 0.645653,0.665553 -0.986643,-0.02602 0.312056,0.643345 0.188411,0.09711 0.791913,-0.148698 0.936166,0 0.147104,0.151639 -0.06579,0.439901 0,0.643346 0.318138,0.983837 0.514889,1.720951 -0.312057,2.573384 -0.242258,0.249725 -1.630146,1.214669 -2.184383,0.643348 -0.07355,-0.07582 0.04652,-0.225769 0,-0.321673 -0.64935,-1.338728 0.02154,0.343878 -0.624112,-0.321675 -0.07355,-0.07582 0.07355,-0.245852 0,-0.321672 -0.07699,-0.07936 -1.795343,-0.07936 -1.872329,0 -0.265196,0.273369 -0.505511,0.598256 -0.624111,0.96502 -0.165283,0.511134 -0.01034,2.241049 0.312056,2.573385 0.07355,0.07582 0.238504,-0.07582 0.312055,0 0.261795,0.269862 -0.131883,1.200524 0,1.608365 0.240467,0.743636 0.72387,1.273523 0.936164,1.930039 0.08919,0.275811 0.222838,2.159742 0.312055,2.25171 0.416074,0.428899 0.312057,-0.53612 0.312057,0.321674 0,0.1963 -0.121591,1.161356 0,1.286694 0.104017,0.107223 0.416072,0.214448 0.312053,0.321671 -0.07561,0.07794 -3.072358,0 -3.744659,0 -0.208037,0 -0.416075,0 -0.624112,0 0,-0.107223 0.09304,-0.27372 0,-0.321671 -1.219516,-0.628553 -5.952529,0.631241 -7.177263,0 -0.764915,-0.394246 -1.617729,-0.341416 -2.496442,-0.643348 -0.387276,-0.133072 -1.243752,0.05438 -1.560276,0 -0.218773,-0.03759 -3.415579,-0.947471 -3.432604,-0.96502 -0.07355,-0.07582 0.07355,-0.245853 0,-0.321671 -0.07355,-0.07582 -0.208037,0 -0.312057,0 -0.208035,-0.428898 -0.416072,-0.857797 -0.624109,-1.286694 z"
       id="path306" />
    <path
       style="fill:#008000;stroke-width:4.97681"
       d="m 36.811502,37.529683 c 1.927363,1.653072 2.954734,1.188171 4.99288,1.608366 0.71644,0.147704 1.102322,0.766584 1.872331,0.965019 0.811005,0.209001 1.962773,0 2.808496,0 2.288403,0 4.576807,0 6.86521,0 0.451912,0 1.476814,-0.203854 1.87233,0 0.455107,0.234566 0.499204,0.514588 0.62411,0.643345 0.260047,0.268061 1.300229,-0.26806 1.560277,0 0.153717,0.158455 0.04835,2.351415 0.312053,2.895059 0.04652,0.0959 0.238503,-0.07582 0.312056,0 0.147104,0.151638 -0.09304,0.451537 0,0.643345 0.274528,0.565979 0.973694,1.042387 1.248221,1.608365 0.151629,0.312609 0.160424,0.974085 0.312053,1.286693 0.608057,1.253595 0.824246,2.54895 1.248222,3.860078 0.299017,0.924698 0.06548,2.760051 -0.312056,3.538405 -0.373213,0.769434 -0.02714,2.839097 0.312056,3.538404 0.516538,1.06492 -0.428822,4.785668 0,6.111788 0.07355,0.227457 0.266439,0.408242 0.312054,0.643345 0.205097,1.057096 -0.398804,3.681232 0,4.503424 0.06579,0.13563 0.246268,0.186044 0.312055,0.321674 0.09304,0.191809 -0.147104,0.491707 0,0.643345 0.61929,0.638378 0.09863,-1.523361 0.62411,0.643348 0.07568,0.312069 -0.220657,0.737562 0,0.965019 0.07355,0.07582 0.265537,-0.0959 0.312055,0 0.322172,0.664201 0,2.447829 0,3.21673 0,0.214449 0.147104,0.491708 0,0.643347 -0.07355,0.07582 -0.238504,-0.07582 -0.312055,0 -0.07355,0.07582 0.04652,0.225769 0,0.321673 -0.42175,0.869501 -2.321297,1.333737 -3.12055,1.608365 -0.316135,0.108626 -1.337528,-0.229612 -1.560274,0 -0.07355,0.07582 0.09304,0.273721 0,0.321674 -0.419944,0.216442 -1.408291,-0.09567 -1.872331,0 -1.768592,0.364619 -2.966289,0.120172 -4.680826,-0.321674 -0.302738,-0.07801 -0.640123,0.101723 -0.936165,0 -1.870277,-0.642641 0.783787,0.0823 -1.248219,-0.96502 -1.420563,0 -0.01785,0.151639 -0.936166,-0.321671 -1.207547,-0.622383 -3.324465,-1.142311 -4.680826,-1.608367 -0.197361,-0.06781 -0.531072,0.191808 -0.624109,0 -0.139555,-0.287712 0.220657,-0.737563 0,-0.965019 -0.57418,-0.591877 -5.152351,1.847847 -5.616992,1.608367 -0.417338,-0.215102 -0.624109,-5.276189 -0.624109,-6.111791 0,-0.692649 -0.158494,-0.816897 -0.312056,-1.608365 -0.131189,-0.676169 0,-1.554439 0,-2.251711 0,-0.729532 0.232631,-2.175659 0,-2.895058 C 35.575672,61.69348 35.355,61.869109 34.939172,61.01182 c -0.09304,-0.191809 0.09304,-0.451538 0,-0.643348 -0.04652,-0.0959 -0.219017,0.04795 -0.312054,0 -0.499195,-0.257291 -0.839416,-1.753051 -0.936165,-2.25171 -0.146897,-0.757126 -0.269454,-10.147525 0,-11.25856 0.112823,-0.465205 0.511285,-0.821487 0.62411,-1.286691 0.175305,-0.722839 0.624109,-2.225408 0.624109,-2.895059 0,-0.867741 0.167398,-5.468442 0.312056,-5.468442 0.53039,0 1.040182,0.214448 1.560274,0.321673 z"
       id="path499" />
    <path
       style="fill:#ff9955;stroke-width:4.97681"
       d="m 43.052603,52.648318 c 0.494611,-0.09744 3.339334,-0.868874 3.74466,-1.286693 0.156028,-0.160835 0.156028,-0.482509 0.312057,-0.643346 0.147104,-0.151638 0.477004,0.151638 0.624109,0 0.07355,-0.07582 -0.07355,-0.245855 0,-0.321673 0.208036,-0.214449 1.040182,0.21445 1.248219,0 0.0909,-0.0937 0.262621,-0.668824 0.936165,-0.321672 0.669661,0.345149 0.01437,0.351282 0.312056,0.965019 0.03042,0.06272 0.556399,0.251874 0.624109,0.321672 0.156028,0.160836 -0.156025,0.804184 0,0.965019 0.124908,0.128758 0.396557,0.174211 0.624112,0.643348 0.142793,0.29439 -0.21173,1.068436 0,1.286691 0.07355,0.07582 0.238502,-0.07582 0.312053,0 0.10402,0.107225 0.208037,0.857796 0.312057,0.965019 0.180866,0.186442 1.067354,0.456907 1.24822,0.643346 0.321639,0.331552 -0.0096,1.920161 0.312054,2.251713 0.26805,0.27631 2.029631,0 2.49644,0 1.846077,0 2.126592,0.1525 4.056717,-0.643345 0.698822,-0.288146 1.826853,0.345112 2.49644,0 0.363505,-0.187356 0.57266,-0.455993 0.936165,-0.643348 0.186074,-0.0959 0.477005,0.151638 0.62411,0 0.07355,-0.07582 -0.07355,-0.245853 0,-0.321672 0.04758,-0.04905 2.948011,0 3.432605,0 0.648585,0 0.33347,0.02208 0.624109,0.321672 0.131392,0.135441 2.453854,0.0439 2.496442,0 0.07355,-0.07582 -0.07355,-0.245853 0,-0.321672 0.108148,-0.111484 1.194444,-0.53248 1.248219,-0.643348 0.09304,-0.191806 -0.09304,-0.451537 0,-0.643346 0.04603,-0.0949 2.618576,-1.28669 2.808496,-1.28669 0.127093,0 1.209292,-0.08026 1.248221,0 0.09304,0.191807 -0.09304,0.451536 0,0.643345 0.104017,0.214449 0.52009,0.107223 0.624109,0.321672 0.09421,0.194218 -0.144252,0.816323 0,0.965019 0.07355,0.07582 0.238504,-0.07582 0.312056,0 0.208036,0.214451 -0.208039,1.072245 0,1.286693 0.290639,0.299598 0.312053,-0.02523 0.312053,0.643346 0,0.814659 1.186053,2.701552 0.62411,3.860078 -0.104017,0.214448 -0.147586,0.47381 -0.312053,0.643345 -0.147105,0.151639 -0.438038,-0.0959 -0.62411,0 -0.804413,0.414602 -3.302532,2.385795 -3.744661,1.930039 -0.07355,-0.07582 0.07355,-0.245852 0,-0.321671 -0.241276,-0.248715 -1.052412,-0.441505 -1.248221,-0.643348 -0.147104,-0.151638 0.147104,-0.491707 0,-0.643345 -0.05705,-0.05882 -4.984286,0 -5.616989,0 -1.366008,0 -0.591245,0.143895 -0.936166,0.321673 -0.249644,0.128668 -0.686521,-0.12867 -0.936165,0 -0.556339,0.286742 -1.207705,0.472068 -1.87233,0.643346 -1.441274,0.371424 -2.932627,-0.171797 -4.368771,0.321674 -1.140997,0.392054 -4.387146,-0.473041 -5.304935,0 -0.567627,0.29256 -1.438448,0.899655 -2.184387,0.643345 -0.963885,-0.331198 -2.071347,-1.375324 -2.49644,-2.251713 -0.04652,-0.0959 0.07355,-0.245852 0,-0.321671 -0.156028,-0.160837 -0.468081,-0.160837 -0.624109,-0.321674 -0.416073,-0.428897 0.66197,-0.308665 -0.312056,-0.643346 -0.197359,-0.06781 -0.477005,0.151638 -0.62411,0 -0.147104,-0.151638 0.09304,-0.451538 0,-0.643348 -0.03042,-0.06272 -0.556399,-0.251875 -0.624109,-0.321671 -0.205929,-0.212276 -0.440852,-1.031403 -0.936165,-1.286693 -0.09304,-0.04795 -0.238504,0.07582 -0.312055,0 -0.07355,-0.07582 0.0577,-0.232458 0,-0.321672 -0.163199,-0.252344 -0.460912,-0.391008 -0.62411,-0.643348 -0.115399,-0.17843 0.09304,-0.451537 0,-0.643346 -0.199786,-0.411886 -0.485419,-0.857789 -0.624109,-1.286693 -0.163907,-0.506869 0.0747,-1.209687 -0.312057,-1.608365 -0.07355,-0.07582 -0.238503,0.07582 -0.312055,0 -0.367761,-0.379096 0,-1.072243 0,-1.608365 z"
       id="path501" />
    <path
       style="fill:#000080;stroke-width:5.85517"
       d="m 38.371777,73.565869 c 1.265654,0.09007 2.668325,-0.322616 3.744661,0.445234 0.537175,0.383219 1.48811,-0.274097 2.49644,0.445237 0.499288,0.35619 1.373042,-0.356189 1.872331,0 0.52524,0.374706 0.606515,0.445239 1.24822,0.445239 0.796615,0 2.985795,-0.541369 3.744659,0 0.465526,0.332102 0.763182,1.105026 1.248222,1.335711 0.225101,0.107056 1.384953,0.195087 1.560274,0.445235 0.07355,0.104941 -0.09304,0.378864 0,0.445237 0.756404,0.539614 5.551525,-0.09341 5.929045,0.445239 0.111107,0.158522 0.301076,1.320043 0.312056,1.335707 0.147105,0.209886 0.477007,-0.209885 0.62411,0 0.441263,0.629589 0.07129,1.984399 0.312055,2.671421 0.342251,0.976643 1.355302,6.372984 0.936165,7.569028 -0.04652,0.132738 -0.238504,-0.104942 -0.312055,0 -0.147104,0.209884 0.09304,0.62498 0,0.890473 -0.181752,0.518641 -0.442359,0.817068 -0.62411,1.335709 -0.291252,0.831104 0.291252,2.285549 0,3.116662 -0.42793,1.221123 -0.105753,2.082715 -0.312055,2.671418 -0.767255,2.18941 -0.370729,4.703511 -0.936166,7.123791 -0.333635,1.42809 0,3.79293 0,5.34283 0,0.63673 0.319233,3.9969 0,4.45237 -0.257071,0.36678 -0.62411,-0.0241 -0.62411,0.89048 0,2.33176 0.358697,7.81462 0,9.34997 -0.03844,0.16456 -2.260405,0 -2.496439,0 -1.659582,0 -8.051312,0.47478 -9.049597,0 -0.337886,-0.1607 -1.113895,-1.20599 -1.248219,-1.78095 -0.528938,-2.26403 0.8376,-4.42901 0.312054,-6.67855 -0.443401,-1.89792 -0.591737,-0.79809 -0.936165,-1.78095 -0.124821,-0.35618 0.124823,-0.97951 0,-1.3357 -0.226622,-0.64669 -0.480234,-0.95984 -0.62411,-1.78095 -0.1083,-0.61809 0.198868,-1.65869 0,-2.22619 -0.131574,-0.37545 -0.531072,-0.49224 -0.624109,-0.89048 -0.131575,-0.56317 0.131574,-1.21775 0,-1.78094 -0.04652,-0.19912 -0.246269,-0.25751 -0.312056,-0.44524 -0.498176,-1.42159 -0.02688,-1.45078 -0.312054,-2.67142 -0.04652,-0.19911 -0.265537,-0.24612 -0.312056,-0.44524 -0.135622,-0.58051 -0.17643,-1.20041 -0.312055,-1.78093 -0.200007,-0.856116 0.25355,-5.426329 0,-5.788082 -0.07355,-0.105012 -0.238502,0.104889 -0.312054,0 -0.191718,-0.27354 -0.206158,-1.03756 -0.624111,-1.335718 -0.395599,-0.282212 -1.580433,-0.474004 -1.872329,-0.890473 -0.07355,-0.104941 0.07355,-0.340294 0,-0.445236 -0.07355,-0.104942 -0.238504,0.104942 -0.312056,0 -0.181359,-0.258756 -0.180931,-1.406769 -0.312056,-1.780945 -0.166134,-0.474082 -0.457975,-0.416399 -0.624109,-0.890473 -0.09456,-0.269841 -0.18129,-1.149133 -0.312056,-1.335708 -0.07355,-0.104942 -0.265535,0.132737 -0.312054,0 -0.05715,-0.163086 0.131274,-1.59365 0,-1.780953 -0.07355,-0.104941 -0.265536,0.132745 -0.312055,0 -0.257927,-0.736009 -0.05875,-1.948601 -0.312056,-2.671417 -0.04652,-0.132745 -0.238502,0.104941 -0.312054,0 -0.236895,-0.338 0.06248,-2.22569 0,-2.671421 -0.377311,-2.69171 -0.577891,-5.029497 0.312054,-7.569025 z"
       id="path633" />
    <path
       style="fill:#803300;stroke-width:4.97681"
       d="m 46.485208,121.80803 c 2.930759,0.99065 5.869684,0.96503 9.049597,0.96503 0.281359,0 3.388829,0.0451 3.432605,0 0.07355,-0.0758 -0.07355,-0.24586 0,-0.32168 0.188447,-0.19426 1.5764,0 1.872331,0 0.625181,0 5.535767,-0.27026 5.929045,0 0.94965,0.65261 0.670608,1.13616 1.248218,1.93004 0.490613,0.67431 1.053746,0.76455 1.248222,0.96502 0.625894,0.64518 -0.42816,1.52606 -0.62411,1.93004 -0.09304,0.19181 0.147105,0.4917 0,0.64335 -0.07355,0.0758 -0.238503,-0.0759 -0.312055,0 -0.551882,0.56888 0.700787,2.05135 -0.936166,2.89505 -0.528719,0.27251 -5.540888,-0.64334 -6.553154,-0.64334 -3.224569,0 -6.449138,0 -9.673707,0 -0.975785,0 -2.530654,0.30991 -3.432605,0 -0.220656,-0.0758 -0.459643,-0.15214 -0.624111,-0.32167 -0.327279,-0.33737 -0.657507,-3.60727 -0.936165,-4.18175 -0.06579,-0.13564 -0.246267,-0.18605 -0.312054,-0.32168 -0.14626,-0.30153 -0.122988,-1.93477 0,-2.25171 0.172765,-0.44523 0.416073,-0.8578 0.624109,-1.2867 z"
       id="path657" />
    <path
       style="fill:#000080;stroke-width:5.85517"
       d="m 38.121656,72.908648 c 1.265657,0.09006 2.668326,-0.322612 3.744658,0.445237 0.53718,0.383212 1.488111,-0.274095 2.496441,0.445236 0.499293,0.356189 1.373044,-0.356189 1.872329,0 0.525247,0.374705 0.60652,0.445236 1.248225,0.445236 0.796612,0 2.985797,-0.541367 3.744657,0 0.465525,0.3321 0.763181,1.105026 1.248225,1.335709 0.225099,0.10706 1.384952,0.195091 1.560273,0.445236 0.07352,0.104942 -0.09304,0.378863 0,0.445237 0.756401,0.539613 5.55152,-0.09341 5.929043,0.445245 0.111109,0.158519 0.301075,1.32004 0.312056,1.3357 0.147102,0.209892 0.477011,-0.209884 0.624112,0 0.441263,0.629589 0.07133,1.984405 0.312057,2.671426 0.342246,0.976638 1.3553,6.372982 0.93616,7.569027 -0.04649,0.132737 -0.238506,-0.104942 -0.312056,0 -0.147102,0.209883 0.09304,0.62498 0,0.890472 -0.181747,0.518641 -0.442358,0.817068 -0.624104,1.335709 -0.291256,0.831105 0.291247,2.285549 0,3.116663 -0.427932,1.221123 -0.105754,2.082714 -0.312057,2.671418 -0.767256,2.189409 -0.370726,4.703501 -0.936168,7.123791 -0.333632,1.42809 0,3.79293 0,5.34283 0,0.63673 0.319231,3.9969 0,4.45237 -0.257066,0.36678 -0.624113,-0.0241 -0.624113,0.89048 0,2.33176 0.358702,7.81462 0,9.34997 -0.0384,0.16456 -2.260403,0 -2.496433,0 -1.659583,0 -8.051313,0.47478 -9.049596,0 -0.337893,-0.1607 -1.113898,-1.20599 -1.248225,-1.78095 -0.528936,-2.26404 0.837607,-4.42901 0.312056,-6.67855 -0.443402,-1.89792 -0.591733,-0.79809 -0.936168,-1.78095 -0.12482,-0.35618 0.124827,-0.97951 0,-1.3357 -0.226615,-0.64669 -0.480228,-0.95984 -0.624104,-1.78095 -0.108306,-0.61809 0.198866,-1.65869 0,-2.22619 -0.131573,-0.37545 -0.531075,-0.49224 -0.624113,-0.89048 -0.131573,-0.56317 0.131573,-1.21776 0,-1.78094 -0.04648,-0.19912 -0.24627,-0.25751 -0.312056,-0.44524 -0.498173,-1.42159 -0.02686,-1.45078 -0.312048,-2.67142 -0.04649,-0.19911 -0.265537,-0.24612 -0.312056,-0.44524 -0.135624,-0.58051 -0.176433,-1.20042 -0.312056,-1.78093 -0.200012,-0.856117 0.253545,-5.426329 0,-5.788083 -0.07352,-0.105011 -0.238506,0.10489 -0.312057,0 -0.191717,-0.273539 -0.206159,-1.037559 -0.624112,-1.335717 -0.395595,-0.282212 -1.580433,-0.474005 -1.872329,-0.890473 -0.07352,-0.104942 0.07352,-0.340295 0,-0.445236 -0.07352,-0.104942 -0.238505,0.104941 -0.312056,0 -0.181359,-0.258756 -0.18093,-1.40677 -0.312056,-1.780945 -0.166134,-0.474083 -0.457971,-0.416399 -0.624104,-0.890473 -0.09457,-0.269842 -0.181292,-1.149133 -0.312057,-1.33571 -0.07352,-0.104942 -0.265537,0.132739 -0.312056,0 -0.05718,-0.163085 0.13127,-1.593649 0,-1.780954 -0.07352,-0.104941 -0.265537,0.132747 -0.312056,0 -0.257925,-0.736007 -0.05878,-1.948596 -0.312056,-2.671417 -0.04649,-0.132747 -0.238506,0.104941 -0.312056,0 -0.236889,-0.337995 0.06248,-2.225687 0,-2.671418 -0.377313,-2.691713 -0.577889,-5.029495 0.312056,-7.569026 z"
       id="path633-8" />
    <path
       style="fill:#803300;stroke-width:4.97681"
       d="m 46.235084,121.15081 c 2.930765,0.99065 5.86969,0.96503 9.049596,0.96503 0.281361,0 3.388837,0.0451 3.43261,0 0.07352,-0.0758 -0.07352,-0.24586 0,-0.32168 0.18845,-0.19426 1.5764,0 1.872329,0 0.625182,0 5.535764,-0.27027 5.929043,0 0.949651,0.65261 0.670614,1.13616 1.248225,1.93004 0.490611,0.67431 1.053745,0.76455 1.248216,0.96502 0.625898,0.64518 -0.428159,1.52606 -0.624112,1.93004 -0.09303,0.19181 0.14711,0.4917 0,0.64335 -0.07352,0.0758 -0.238497,-0.0759 -0.312048,0 -0.551884,0.56888 0.700788,2.05135 -0.936168,2.89505 -0.528718,0.27251 -5.540893,-0.64334 -6.553156,-0.64334 -3.224572,0 -6.449136,0 -9.673709,0 -0.975782,0 -2.530648,0.30991 -3.432601,0 -0.220661,-0.0758 -0.459647,-0.15214 -0.624113,-0.32168 -0.327282,-0.33736 -0.657502,-3.60726 -0.936168,-4.18174 -0.06577,-0.13564 -0.246262,-0.18605 -0.312048,-0.32168 -0.14626,-0.30153 -0.122992,-1.93477 0,-2.25171 0.172761,-0.44523 0.416075,-0.8578 0.624104,-1.2867 z"
       id="path657-6" />
  </g>
</svg>
