<?xml version="1.0" encoding="UTF-8" standalone="no"?>
<!-- Created with Inkscape (http://www.inkscape.org/) -->

<svg
   width="512"
   height="512"
   viewBox="0 0 135.46666 135.46667"
   version="1.1"
   id="svg5"
   inkscape:version="1.2.1 (9c6d41e410, 2022-07-14)"
   sodipodi:docname="background.svg"
   inkscape:export-filename="background.png"
   inkscape:export-xdpi="96"
   inkscape:export-ydpi="96"
   xmlns:inkscape="http://www.inkscape.org/namespaces/inkscape"
   xmlns:sodipodi="http://sodipodi.sourceforge.net/DTD/sodipodi-0.dtd"
   xmlns="http://www.w3.org/2000/svg"
   xmlns:svg="http://www.w3.org/2000/svg">
  <sodipodi:namedview
     id="namedview7"
     pagecolor="#505050"
     bordercolor="#eeeeee"
     borderopacity="1"
     inkscape:showpageshadow="0"
     inkscape:pageopacity="0"
     inkscape:pagecheckerboard="true"
     inkscape:deskcolor="#505050"
     inkscape:document-units="px"
     showgrid="false"
     inkscape:zoom="0.64807656"
     inkscape:cx="287.00313"
     inkscape:cy="253.05652"
     inkscape:window-width="1366"
     inkscape:window-height="697"
     inkscape:window-x="-8"
     inkscape:window-y="-8"
     inkscape:window-maximized="1"
     inkscape:current-layer="layer1" />
  <defs
     id="defs2" />
  <g
     inkscape:label="Layer 1"
     inkscape:groupmode="layer"
     id="layer1">
    <rect
       style="fill:#003cd4;fill-opacity:1;stroke:none;stroke-width:6.11922"
       id="rect11651"
       width="254"
       height="125.46563"
       x="-20.004709"
       y="-17.555155" />
    <path
       style="fill:#916f6f;fill-opacity:1;stroke:none;stroke-width:6.11922"
       d="m 179.35225,64.963802 c 0.52087,-2.284403 -1.1185,-4.210424 -3.00237,-6.135238 -1.30525,-1.333625 1.3312,1.973655 -1.80141,-1.227047 -0.28307,-0.289218 -0.22071,-0.661603 -0.60047,-0.920286 -1.09705,-0.747263 -1.1103,0.09261 -1.80142,-0.613524 -0.39574,-0.40433 -0.67371,-1.129785 -1.20095,-1.53381 -0.11105,-0.08508 -0.51096,0.09146 -0.60047,0 -0.36908,-0.377094 -0.29398,-0.835599 -0.60048,-1.227048 -0.26844,-0.342852 -1.37755,-0.617133 -1.80142,-0.920285 -0.83892,-0.600018 -1.7564,-1.181054 -2.40188,-1.840571 -0.72134,-0.737018 -1.0893,-5.079316 -0.60047,-5.828478 0.85697,-1.3134 6.34695,-5.762511 9.00709,-6.442 0.35805,-0.09146 0.82117,0.06467 1.20094,0 0.14003,-0.02386 2.34145,-1.472055 2.40188,-1.53381 1.11822,-1.142516 1.22975,-2.17675 2.4019,-3.37438 0.84447,-0.862821 2.1579,-1.591275 3.00237,-2.454095 0.59504,-0.607989 0.7448,-3.141354 1.20095,-3.374381 0.14149,-0.07231 0.48944,0.08508 0.60047,0 2.21707,-1.698951 0.89668,-3.071728 -0.60047,-4.60143 -0.0896,-0.09146 0,-0.204507 0,-0.30676 -0.20017,-0.306763 -0.24938,-0.651239 -0.60048,-0.920287 -0.11104,-0.08508 -0.45894,0.07231 -0.60047,0 -0.14149,-0.07231 0,-0.204508 0,-0.306761 -0.20016,-0.102256 -0.36495,-0.226549 -0.60048,-0.306763 -2.48801,-0.847363 -6.3261,-0.171202 -9.00709,0 -3.34952,0.213895 -6.26152,0.186177 -9.60756,0.613524 -0.94192,0.120299 -2.06045,-0.120299 -3.00237,0 -0.27461,0.03507 -0.33193,0.261032 -0.60047,0.306762 -0.56966,0.09701 -1.46833,-0.255242 -1.80141,0 -0.86488,0.66275 -0.19115,2.244977 -1.20095,2.760858 -0.14149,0.07231 -0.45895,-0.07231 -0.60047,0 -0.4246,0.216912 0.18988,0.629265 0,0.920285 -0.2402,0.368113 -1.56124,0.552171 -1.80142,0.920284 -0.1266,0.194015 0.17902,0.430609 0,0.613525 -0.3539,0.361592 -6.06274,0.643161 -6.6052,0.920286 -0.14154,0.07231 0.14153,0.234457 0,0.306762 -0.51031,0.260697 -1.29112,0.352826 -1.80142,0.613525 -0.40171,0.205217 0.4017,0.408305 0,0.613523 -0.14154,0.07231 -0.45894,-0.07231 -0.60047,0 -0.14154,0.07231 0.0895,0.215304 0,0.306762 -0.87415,0.893146 -3.71616,1.064018 -5.40426,0.920286 -1.05866,-0.09014 -9.48129,-1.4693 -10.20804,-1.840571 -0.14153,-0.07231 0.14154,-0.234459 0,-0.306762 -0.28306,-0.144609 -0.84289,0.09146 -1.20094,0 -0.81121,-0.207211 -1.62277,-0.414511 -2.40189,-0.613525 -1.02186,-0.261016 -2.92217,-1.312524 -3.60284,-1.533811 -1.36143,-0.442597 -2.89017,-0.747874 -4.20331,-1.227047 -0.16287,-0.05944 0,-0.204507 0,-0.30676 -0.20016,-0.102256 -0.34729,-0.242091 -0.60047,-0.306762 -1.03498,-0.26437 -2.39646,-0.673767 -3.60284,-0.920286 -0.76625,-0.156581 -1.66374,-0.118215 -2.40189,-0.306762 -2.38334,-0.608785 2.6539,-0.09696 -2.40189,-0.613525 -3.70852,-0.378911 -10.835248,0.0046 -14.411348,0.613525 -0.684644,0.116587 -0.500813,0.830866 -1.200945,0.920285 -0.614055,0.07842 -1.183536,-0.236616 -1.801421,-0.306762 -1.188517,-0.134927 -2.397559,-0.2188 -3.602835,-0.306761 -5.547105,-0.404835 -12.669662,0.546068 -18.014184,0 -0.869366,-0.08883 -2.132993,-0.524699 -3.002364,-0.613525 -1.345303,-0.137454 -2.850556,0.11518 -4.203308,0 -1.006721,-0.08572 -1.985945,-0.259556 -3.002364,-0.306762 -1.594684,-0.07406 -3.317049,0.30381 -4.803783,0 -0.670062,-0.136925 -1.131355,-0.476598 -1.801416,-0.613523 -0.371685,-0.07595 -0.800631,0 -1.200945,0 -0.600473,-0.102253 -1.235289,-0.162153 -1.801421,-0.306762 -1.38906,-0.354812 -2.659275,-1.001679 -4.203308,-1.227048 -2.819169,-0.41149 -5.615963,-0.563871 -8.406619,-0.920285 -0.751048,-0.09592 -1.666733,0.12519 -2.401891,0 -2.745406,-0.467514 2.543754,-0.243556 -1.801419,-0.613525 -1.184605,-0.100862 -2.463518,0.194014 -3.602836,0 -0.960756,-0.163607 -0.208204,-0.713722 -1.801418,-0.30676 -0.601377,0.15361 0.598387,1.834176 0.600472,1.84057 0.40088,1.228778 -0.08372,2.493164 -0.600472,3.681143 -0.358053,0.823129 -0.929599,1.62236 -1.200946,2.454095 -0.778876,2.387416 0.67014,4.965816 0,7.362286 -0.728122,2.603817 -1.011643,5.198317 0.600474,7.669048 0.624527,0.957154 -0.875983,2.47936 0,3.374382 1.24951,1.27667 -0.04146,-0.327941 1.200944,0.306761 0.316478,0.161678 0.216689,0.495888 0.600474,0.613525 2.053327,0.629387 7.787329,1.072464 10.208037,1.227047 2.189172,0.139798 6.222752,0.724906 7.806146,1.533811 0.141536,0.07231 -0.141537,0.234456 0,0.30676 0.33904,0.173205 8.800071,0.162906 10.208035,0.306762 2.474448,0.252822 5.755403,0.422467 7.205674,1.53381 0.248267,0.190246 0.283994,0.451847 0.600473,0.613525 0.316478,0.161676 0.884469,0.145084 1.200948,0.30676 1.241948,0.634473 0.736143,0.818889 1.801417,1.227048 1.947699,0.746263 6.577829,1.512836 7.806146,2.454095 1.544391,1.18347 3.342421,2.179883 4.803782,3.374383 1.092195,0.892746 1.859265,1.8849 3.002365,2.760857 1.180236,0.904417 2.926685,1.584515 4.203307,2.454096 2.173257,1.480325 2.367658,1.900733 4.203309,3.37438 0.414288,0.332585 5.31342,4.647832 6.004729,4.294664 0.301177,-0.153862 3.325411,-3.397689 3.602831,-3.681141 0.47909,-0.4895 2.6471,-1.568323 3.00237,-1.840571 1.1824,-0.906075 3.35357,-2.940279 4.80378,-3.681143 0.14154,-0.07231 0.45894,0.07231 0.60047,0 0.0325,-0.01662 1.16841,-0.903662 1.20095,-0.920285 1.2424,-0.634702 -0.0486,0.969907 1.20095,-0.306762 0.0895,-0.09146 -0.14154,-0.234457 0,-0.306762 0.14153,-0.07231 0.45893,0.07231 0.60047,0 0.14154,-0.07231 -0.14154,-0.234457 0,-0.306763 0.39366,-0.201107 2.10105,-0.153074 2.40189,-0.306762 0.14154,-0.07231 -0.14154,-0.234457 0,-0.306761 0.47927,-0.244846 2.37238,0.160917 3.00236,0 0.90606,-0.231439 1.28165,-0.422759 2.4019,-0.613525 0.9007,-0.15338 2.10165,0.153383 3.00236,0 0.26854,-0.04573 0.33193,-0.261031 0.60047,-0.306762 2.20463,-0.375424 8.39257,0.463731 10.20804,0 1.62252,-0.414447 1.43285,-2.265807 2.40189,-2.760856 0.14154,-0.07231 0.45894,0.07231 0.60047,0 0.14154,-0.07231 0,-0.204508 0,-0.306762 0.20016,-0.102254 0.36495,-0.226549 0.60048,-0.306762 0.74479,-0.253662 1.76893,-0.290168 2.40189,-0.613523 0.80063,-0.409016 -1.00079,-0.306762 0.60047,-0.306762 1.21722,0 7.95344,-0.269139 9.00709,0 2.20246,0.562582 3.80308,2.658693 4.80378,3.681142 0.80063,0.818032 1.91008,1.574698 2.4019,2.454096 0.28037,0.501332 0.19843,1.054571 0.60046,1.533809 0.22302,0.265833 0.9009,0.368267 1.20095,0.613524 0.71163,0.581675 1.2561,1.213751 1.80142,1.840572 0.25707,0.295486 0.24937,0.651238 0.60047,0.920285 0.11105,0.08508 0.45894,-0.07231 0.60048,0 0.28307,0.144609 -0.28308,0.468916 0,0.613524 2.62079,1.338876 4.80749,1.841204 8.40661,2.454096 2.49057,0.424117 -0.0887,0.189406 2.4019,0.613523 1.92601,0.327979 2.23856,-0.571806 3.60282,-0.920286 0.17903,-0.04573 0.45896,0.07231 0.60048,0 0.28307,-0.144608 -0.14867,-0.423644 0,-0.613524 0.33245,-0.424587 0.86851,-0.802461 1.20095,-1.227048 0.29644,-0.378597 0,-2.004686 0,-2.147333 z"
       id="path10978" />
    <path
       style="fill:#d40000;fill-opacity:1;stroke:none;stroke-width:6.11922"
       d="m 33.437367,19.256276 c -0.99343,-1.087524 -4.586556,-4.562191 -5.404254,-6.442 -0.130255,-0.299457 0.14564,-0.622682 0,-0.920285 -0.06866,-0.140291 -0.473883,-0.17742 -0.600474,-0.306763 -0.872487,-0.891451 -1.769984,-2.0991579 -2.40189,-3.0676182 -0.113209,-0.1734966 0.241173,-0.797078 0,-0.9202864 -0.141536,-0.072306 -0.489447,0.085081 -0.600474,0 C 23.961277,7.2399299 23.919823,6.4182649 23.22933,6.0655145 22.912853,5.9038364 22.344861,5.9204301 22.028384,5.7587521 20.785985,5.1240509 23.926936,5.783563 21.427911,5.1452288 c -0.179026,-0.04573 -0.510959,0.091458 -0.600472,0 -0.179026,-0.1829176 0.222055,-0.4433636 0,-0.613524 -0.248265,-0.1902459 -0.884469,-0.1450844 -1.200945,-0.3067624 -0.755501,-0.3859604 1.820453,-3.94281891 2.40189,-4.90819036 0.61172,-1.01564844 1.559399,-4.26375694 4.203309,-4.60142874 8.703164,-1.1115405 14.026095,-0.2897729 22.817967,0 8.668014,0.2856905 17.778244,0.09462 26.420799,-0.306762 13.677538,-0.6352187 27.692421,-0.3067619 41.432621,-0.3067619 6.40505,0 12.81009,0 19.21513,0 1.51647,0 3.88884,-0.1935436 5.40426,0 3.26335,0.4167854 5.41244,3.4563018 7.20567,4.6014288 0.70732,0.45168252 1.80179,0.73653498 2.40189,1.22704764 0.43739,0.35751937 0.0849,0.89783038 0.60047,1.22704756 0.39541,0.2524984 1.29506,0.1127489 1.80142,0.3067621 0.35805,0.1371881 0.284,0.451846 0.60047,0.6135238 0.14154,0.072305 0.45894,-0.072305 0.60048,0 0.14153,0.072305 -0.16013,0.2454095 0,0.306762 0.7161,0.274376 1.67349,0.3477272 2.40189,0.6135238 0.69102,0.2521566 1.09485,0.6796418 1.80141,0.9202856 1.67821,0.571562 3.56394,0.1724538 5.40426,0.3067617 0.28022,0.020453 0.33194,0.2610328 0.60048,0.3067624 0.37976,0.064672 0.80062,0 1.20094,0 1.00079,0.204508 2.06013,0.3461021 3.00236,0.613524 0.87485,0.2482945 1.54373,0.6572391 2.40189,0.9202857 2.58868,0.7934811 7.80615,1.5167824 7.80615,3.374381 0,0.3067616 0.36029,0.6748755 0,0.9202855 -1.71628,1.169052 -4.63817,1.755967 -6.6052,2.760857 -0.90626,0.462975 -1.42881,1.107708 -2.40189,1.53381 -0.77275,0.338375 -5.94862,1.175444 -6.6052,1.227048 -1.50816,0.118533 -14.84203,-0.262336 -15.61229,0 -3.09649,1.054593 -4.32169,2.877423 -4.80379,4.601427 -0.0566,0.202454 -0.39078,0.569162 0,0.613525 2.75272,0.312506 7.39444,0.497554 10.20804,0 6.47887,-1.145714 10.36521,-2.200862 15.61229,-3.987905 0.53292,-0.181499 2.64466,-1.289059 3.60284,-1.53381 4.06006,-1.037077 8.90334,-0.860324 13.21041,-1.227047 1.4321,-0.121936 2.41367,-1.282052 3.00235,-1.840572 1.10665,-1.04994 2.75226,-1.957134 3.60284,-3.0676185 1.789,-2.335617 2.08001,-5.2025199 2.4019,-7.6690483 0.24002,-1.83932661 0.22916,-3.6880898 0.60047,-5.5217144 1.37996,-6.8148318 1.20093,-0.9174894 1.20093,-4.9081906 0,-0.174833 -0.51152,-1.6512102 0.60048,-1.8405712 4.30502,-0.733098 6.58925,3.2531663 9.00709,5.2149523 3.69254,2.9960429 6.19631,9.6337968 4.80379,13.1907625 -0.24828,0.6341519 -1.02192,1.2003602 -1.20095,1.8405713 -2.91133,10.4111069 3.08925,-4.8960197 -1.20095,4.6014289 -0.41494,0.918593 -0.89756,1.83095 -1.20094,2.760857 -0.0987,0.302588 0.4246,0.703373 0,0.920286 -3.27974,1.675512 -7.54392,0.591196 -11.40899,0.920287 -1.8207,0.155022 -3.43383,0.836399 -5.40425,0.920285 -1.99465,0.08492 -4.10586,-0.323357 -6.00472,0 -0.26854,0.04573 -0.33193,0.261031 -0.60047,0.306762 -0.37978,0.06467 -0.86787,-0.113442 -1.20095,0 -1.53009,0.521112 -0.009,0.613523 -1.80142,0.613523"
       id="path11532" />
    <path
       style="fill:#ff6600;fill-opacity:1;stroke:none;stroke-width:6.11922"
       d="m 59.85817,50.852753 c -2.460548,8.814074 -1.1808,18.134974 3.602835,26.688286 0.776557,1.388516 2.425835,2.515262 3.002365,3.987904 0.355459,0.907972 0.102545,1.870539 0.600474,2.760861 0.320627,0.573296 1.402566,0.973471 1.801417,1.533812 0.235453,0.330785 0.523413,2.530102 1.200942,2.760854 5.335844,1.817274 13.639591,1.976554 18.014185,3.987904 1.161978,0.534253 1.896959,1.27586 3.002365,1.840574 0.01778,0.0091 9.749357,4.439203 10.208037,4.601428 3.88844,1.375254 2.21516,-0.07648 6.6052,0.920288 0.776,0.176196 1.1104,0.668126 1.80142,0.920286 0.7284,0.2658 1.76893,0.29016 2.40189,0.61352 4.21042,2.15096 6.17683,5.45177 11.40898,7.05553 0.89096,0.27309 3.55848,0.94294 3.60284,0.92028 3.47489,-1.77521 1.27655,-4.23563 0.60047,-6.13524 -0.14321,-0.40242 0.0725,-0.81971 0,-1.22705 -0.0941,-0.52861 -0.62054,-2.6331 -1.20094,-3.374376 -0.49867,-0.636878 -1.37682,-1.189833 -1.80142,-1.840574 -0.77398,-1.186204 -0.46864,-2.904505 -3.00236,-3.681142 -1.18352,-0.36277 -3.06632,-0.323097 -4.20332,-0.613524 -0.81613,-0.208466 -1.58575,-0.711814 -2.40189,-0.920287 -2.16228,-0.552317 -3.00526,-0.412476 -4.20331,-1.840567 -0.13627,-0.162436 -0.0435,-1.551891 0,-1.840575 0.16957,-1.126107 0.26431,-2.258084 0.60048,-3.374378 0.14501,-0.481529 1.15363,-1.275394 0.60047,-1.840575 -0.44757,-0.457296 -1.62041,-0.600894 -2.40189,-0.920287 -2.19227,-0.895965 -4.52448,-2.164438 -6.00473,-3.374379 -1.33973,-1.095083 -1.28644,-3.724819 -2.40189,-4.294666 -0.36891,-0.188463 -1.399294,-0.202664 -1.801417,-0.613524 -2.003418,-2.046959 -3.22638,-3.356017 -5.404256,-5.828476 -0.808961,-0.918382 -1.007955,-2.048742 -2.40189,-2.760858 -0.440349,-0.224958 -2.736713,-0.784572 -3.002366,-0.920285 -0.141536,-0.07231 0.141537,-0.234457 0,-0.306762 -0.583553,-0.298118 -1.663745,-0.118216 -2.40189,-0.306762 -1.447533,-0.369749 -2.236178,-1.375117 -3.602838,-1.840571 -1.975438,-0.672793 -0.620535,0.144412 -3.002361,-0.920287 -2.787078,-1.245847 -4.040942,-2.677908 -6.605203,-3.987904 -0.141536,-0.07231 -0.458939,0.07231 -0.600474,0 -0.368912,-0.188465 -0.396698,-0.714855 -1.200944,-0.920287 -0.179024,-0.04573 -0.458939,0.07231 -0.600474,0 -0.510302,-0.260697 -0.637407,-0.689971 -1.200943,-0.920285 -0.89612,-0.366239 -3.602838,-0.294261 -3.602838,-0.920285"
       id="path11534" />
  </g>
</svg>
