<?xml version="1.0" encoding="UTF-8" standalone="no"?>
<!-- Created with Inkscape (http://www.inkscape.org/) -->

<svg
   width="512"
   height="512"
   viewBox="0 0 135.46666 135.46667"
   version="1.1"
   id="svg5"
   inkscape:version="1.2.1 (9c6d41e410, 2022-07-14)"
   sodipodi:docname="coin.svg"
   inkscape:export-filename="coin.png"
   inkscape:export-xdpi="96"
   inkscape:export-ydpi="96"
   xmlns:inkscape="http://www.inkscape.org/namespaces/inkscape"
   xmlns:sodipodi="http://sodipodi.sourceforge.net/DTD/sodipodi-0.dtd"
   xmlns="http://www.w3.org/2000/svg"
   xmlns:svg="http://www.w3.org/2000/svg">
  <sodipodi:namedview
     id="namedview7"
     pagecolor="#505050"
     bordercolor="#eeeeee"
     borderopacity="1"
     inkscape:showpageshadow="0"
     inkscape:pageopacity="0"
     inkscape:pagecheckerboard="true"
     inkscape:deskcolor="#505050"
     inkscape:document-units="px"
     showgrid="false"
     inkscape:zoom="0.78906292"
     inkscape:cx="236.98997"
     inkscape:cy="259.80184"
     inkscape:window-width="1366"
     inkscape:window-height="697"
     inkscape:window-x="-8"
     inkscape:window-y="-8"
     inkscape:window-maximized="1"
     inkscape:current-layer="layer1" />
  <defs
     id="defs2" />
  <g
     inkscape:label="Layer 1"
     inkscape:groupmode="layer"
     id="layer1">
    <path
       style="fill:#8a4c00;fill-opacity:1;stroke-width:0.601113;stroke-opacity:0.952941"
       d="m 18.395216,31.69443 c 0.556963,-0.0083 1.092144,-0.03775 1.651672,-0.03775 0.269752,0 0.803961,-0.0505 1.016414,0 0.02322,0.0055 0.04017,0.03312 0.06353,0.03775 0.173877,0.03444 0.367115,-0.04109 0.539969,0 0.0845,0.02008 0.208911,0.06752 0.285866,0.113251 0.01339,0.008 0.01756,0.03212 0.03176,0.03775 0.02009,0.008 0.04459,-0.01125 0.06353,0 0.0095,0.0056 -0.0047,0.0265 0,0.03775 0.01339,0.03183 0.03957,0.05415 0.06353,0.0755 0.09054,0.08071 0.182147,0.157354 0.254103,0.264255 0.06611,0.09821 0.128,0.23473 0.222341,0.302006 0.05733,0.04088 0.17041,0.06388 0.22234,0.113252 0.02981,0.02834 0.03968,0.07782 0.06353,0.113252 0.07593,0.112811 0.190547,0.218895 0.254104,0.339756 0.04202,0.07991 0.194216,0.465983 0.22234,0.566261 0.0033,0.01194 0,0.02517 0,0.03775 0.03176,0.125836 0.05277,0.256237 0.09529,0.377507 0.01152,0.03285 0.04898,0.04439 0.06353,0.0755 0.03916,0.08377 0.05923,0.178538 0.09529,0.264254 0.07548,0.179407 0.194424,0.32943 0.22234,0.52851 0.01485,0.105903 0.01926,0.724077 0,0.792765 -0.0047,0.01688 -0.02813,0.02049 -0.03176,0.03775 -0.0077,0.03662 0.0118,0.0782 0,0.113252 -0.01112,0.03305 -0.0524,0.04246 -0.06353,0.0755 -0.04018,0.04258 0.01339,0.103251 0,0.151003 -0.0075,0.02669 -0.02602,0.0482 -0.03176,0.0755 -0.01993,0.09475 0.01993,0.207259 0,0.302006 -0.01383,0.06574 -0.0497,0.123012 -0.06353,0.188753 -0.02714,0.129026 -0.02781,0.287919 -0.06353,0.415258 -0.01859,0.06627 -0.0767,0.122479 -0.09529,0.188753 -0.0067,0.02388 0.0058,0.0513 0,0.0755 -0.02473,0.102868 -0.07558,0.196595 -0.09529,0.302005 -0.02118,0.113252 -0.04748,0.22532 -0.06353,0.339756 -0.01329,0.09477 -0.0062,0.210895 -0.03176,0.302006 -0.01576,0.05618 -0.116224,0.230509 -0.158814,0.264255 -0.0197,0.01561 -0.04812,0.01639 -0.06353,0.03775 -0.07962,0.110401 -0.164738,0.309044 -0.254104,0.415257 -0.01497,0.0178 -0.04344,-0.008 -0.06353,0 -0.05409,0.02143 -0.106409,0.04881 -0.158815,0.0755 -0.09081,-0.06864 -0.109265,0.08381 -0.158815,0.113252 -0.03377,0.02007 -0.02976,-0.02007 -0.06353,0 -0.09181,0.05456 -0.190569,0.132123 -0.285866,0.188754 -0.0037,0.0022 -0.157617,0.03633 -0.158814,0.03775 -0.0075,0.0089 0.0095,0.03212 0,0.03775 -0.01894,0.01126 -0.04387,-0.0093 -0.06353,0 -0.179785,0.08547 -0.345431,0.301221 -0.53997,0.339757 -0.03133,0.0062 -0.06414,-0.0074 -0.09529,0 -0.04643,0.01103 -0.08062,0.06446 -0.127051,0.0755 -0.132588,0.03152 -0.279418,-0.02645 -0.412918,0 -0.30191,0.0598 -0.613394,0.03775 -0.921125,0.03775 -0.216115,0 -0.42604,0.01198 -0.635259,-0.03775 -0.0863,-0.02052 -0.202172,0.03316 -0.285866,0 -0.06738,-0.02669 -0.123198,-0.08656 -0.190577,-0.113252 -0.08283,-0.03281 -0.173855,-0.03462 -0.254104,-0.0755 -0.03509,-0.01787 -0.05984,-0.05865 -0.09529,-0.0755 -0.04278,-0.02034 -0.11515,-0.0118 -0.158815,-0.03775 -0.0704,-0.04183 -0.138888,-0.09121 -0.22234,-0.113252 -0.06287,-0.0166 -0.126823,-0.02693 -0.190578,-0.03775 -0.01536,-0.0026 -0.08509,0.01212 -0.09529,0 -0.0075,-0.0089 0.0095,-0.03212 0,-0.03775 -0.04829,-0.02869 -0.113895,-0.0022 -0.158814,-0.03775 -0.08314,-0.06588 -0.132169,-0.135169 -0.222341,-0.188754 -0.01894,-0.01125 -0.04459,0.01125 -0.06353,0 -0.151668,-0.09013 -0.316654,-0.145113 -0.476443,-0.226504 -0.04929,-0.02511 -0.07817,-0.08421 -0.127052,-0.113252 -0.0095,-0.0056 -0.02428,0.0089 -0.03176,0 -0.01331,-0.01582 -0.02214,-0.09037 -0.03176,-0.113253 -0.02303,-0.05474 -0.127938,-0.07655 -0.158814,-0.113251 -0.01497,-0.0178 0.01497,-0.05771 0,-0.0755 -0.0075,-0.0089 -0.02428,0.0089 -0.03176,0 -0.0075,-0.0089 0.0075,-0.02885 0,-0.03775 -0.0075,-0.0089 -0.02428,0.0089 -0.03176,0 -0.0075,-0.0089 0.0075,-0.02885 0,-0.03775 -0.0086,-0.01022 -0.109334,-0.102723 -0.127052,-0.113252 -0.01962,-0.01166 -0.115278,-0.02376 -0.127052,-0.03775 -0.0075,-0.0089 0.0075,-0.02885 0,-0.03775 -0.0075,-0.0089 -0.02295,0.007 -0.03176,0 -0.17726,-0.140451 0.07197,-0.01386 -0.158814,-0.151003 -0.02575,-0.0153 -0.17164,-0.09074 -0.190578,-0.113252 -0.05478,-0.0651 0.06383,-0.226862 0.09529,-0.264254"
       id="path6447" />
    <path
       style="fill:#f68700;fill-opacity:1;stroke-width:0.601113;stroke-opacity:0.952941"
       d="m 18.331691,31.618928 c 0.27755,-0.08825 0.551604,-0.102936 0.825836,-0.03775 0.163053,0.03876 0.340367,0.0015 0.508206,0.03775 0.285265,0.06164 0.550187,0.203722 0.825836,0.302005 0.113963,0.04063 0.240522,0.04856 0.349392,0.113253 0.12875,0.07651 0.208019,0.197787 0.317629,0.302005 0.05962,0.05669 0.133828,0.0903 0.190578,0.151003 0.05617,0.06009 0.259307,0.409606 0.285866,0.453008 0.495277,0.809385 0.500511,1.454758 0.667022,2.378294 0.07184,0.398464 0.165994,0.791467 0.127051,1.208022 0.03676,0.09827 -0.05252,0.148002 -0.06353,0.226504 -0.007,0.04965 0.01164,0.102606 0,0.151003 -0.02097,0.08725 -0.09049,0.146843 -0.127051,0.226504 -0.138728,0.30228 -0.103953,0.28583 -0.254104,0.566261 -0.02964,0.121574 -0.136431,0.167725 -0.190577,0.264255 -0.04497,0.08016 -0.06623,0.191971 -0.127052,0.264254 -0.118017,0.140265 -0.280761,0.192057 -0.412918,0.302006 -0.139541,0.116093 -0.267818,0.293044 -0.444681,0.339756 -1.0368,0.273834 -2.107276,0.04085 -3.144529,-0.113252 -0.105582,-0.01569 -0.213507,-0.0117 -0.317629,-0.03775 -0.02958,-0.0074 -0.403783,-0.162846 -0.476444,-0.188753 -0.392027,-0.139779 -0.74303,-0.280245 -1.079939,-0.56626 -0.08319,-0.07062 -0.134416,-0.221908 -0.190578,-0.302006 -0.0068,-0.0097 -0.02804,0.01178 -0.03176,0 -0.03791,-0.120157 -0.02561,-0.25735 -0.06353,-0.377507 -0.02494,-0.07904 -0.06731,-0.148916 -0.09529,-0.226504 -0.07791,-0.216062 -0.01432,-1.074787 0.03176,-1.321274 0.02179,-0.116536 0.06353,-0.226504 0.09529,-0.339757 0.03176,-0.138419 0.07067,-0.274798 0.09529,-0.415257 0.03268,-0.186421 0.01286,-0.385609 0.06353,-0.566261 0.137334,-0.489669 0.111018,-0.275452 0.285867,-0.755013 0.02913,-0.07991 0.228018,-0.838614 0.381155,-1.05702 0.02444,-0.03486 0.06548,-0.04716 0.09529,-0.0755 0.07622,-0.07247 0.14497,-0.155769 0.222341,-0.226505 0.182497,-0.166846 0.409299,-0.297704 0.571732,-0.490759 0.01674,-0.0199 0.01502,-0.0556 0.03176,-0.0755 0.0075,-0.0089 0.02229,0.0056 0.03176,0 0.05825,-0.03461 0.132329,-0.07864 0.190578,-0.113252 0.291879,-0.173451 0.211521,-0.151003 0.539969,-0.151003 0.01938,0 0.114676,-0.01471 0.127052,0 0.0075,0.0089 -0.0075,0.02885 0,0.03775 0.0075,0.0089 0.02268,-0.0065 0.03176,0 0.04539,0.03237 0.0847,0.0755 0.127052,0.113252 z"
       id="path5956" />
    <path
       style="fill:none;fill-opacity:1;stroke:#8a4c00;stroke-width:0.601113;stroke-opacity:1"
       d="m 20.586858,33.35546 c -0.10496,-0.152189 -0.22659,-0.361157 -0.381155,-0.453008 -0.18919,-0.112428 -0.547576,-0.08773 -0.76231,-0.113252 -0.130123,-0.01547 -0.197513,-0.08946 -0.31763,-0.113253 -0.151641,-0.03004 -0.413469,-0.09149 -0.571732,-0.03775 -0.04553,0.01546 -0.08353,0.05333 -0.127052,0.0755 -0.03077,0.01568 -0.07277,0.0083 -0.09529,0.03775 -0.08694,0.113656 -0.162373,0.241441 -0.222341,0.377507 -0.16362,0.371252 -0.08107,0.297522 -0.158814,0.52851 -0.01201,0.03567 -0.06141,0.141774 -0.03176,0.188753 0.0539,0.08542 0.115826,0.167276 0.190577,0.226504 0.05572,0.04415 0.129989,0.04161 0.190578,0.0755 0.185071,0.10351 0.336151,0.257961 0.539969,0.302005 0.163061,0.03524 0.317906,-0.0075 0.508207,0.03775 0.02076,0.0049 0.04398,-0.0097 0.06353,0 0.292435,0.144818 0.599121,0.334557 0.825836,0.604011 0.07496,0.08909 0.114536,0.12392 0.158814,0.264255 0.03464,0.109772 0.05781,0.795764 0.03176,0.981518 -0.01155,0.08237 -0.04139,0.08122 -0.09529,0.113252 -0.329508,0.195813 -0.330781,0.131046 -0.667021,0.264255 -0.03621,0.01435 -0.06114,0.05521 -0.09529,0.0755 -0.128227,0.0762 -0.411821,0.204746 -0.539969,0.226504 -0.272718,0.0463 -0.262461,-0.03153 -0.53997,-0.0755 -0.168244,-0.02666 -0.33906,-0.021 -0.508206,-0.03775 -0.148092,-0.01467 -0.296306,-0.02795 -0.444681,-0.03775 -0.115199,-0.0076 -0.190578,0.04064 -0.190578,-0.113253"
       id="path7142" />
    <path
       style="fill:none;fill-opacity:1;stroke:#8a4c00;stroke-width:0.601113;stroke-opacity:1"
       d="m 19.602208,31.845432 c -0.07411,0.213921 -0.171737,0.418371 -0.222341,0.641762 -0.0109,0.04811 0.0073,0.471267 0,0.56626 -0.02776,0.362949 -0.09231,0.739097 -0.158815,1.094771 -0.02619,0.140058 -0.08091,0.272805 -0.09529,0.415257 -0.03125,0.309542 0.03256,0.634236 0,0.943768 -0.01389,0.132048 -0.0527,0.324383 -0.06352,0.453008 -0.01704,0.2025 0.03377,0.441076 0,0.641761 -0.01858,0.110395 -0.04941,0.222313 -0.06353,0.339757 -0.0075,0.06229 0.01284,0.127714 0,0.188753 -0.03405,0.161871 -0.07698,0.316673 -0.09529,0.490759 -1.51e-4,0.0014 0.0083,0.141134 0,0.151003 -0.03452,0.04103 -0.03176,-0.02586 -0.03176,0.113252"
       id="path7459" />
  </g>
</svg>
