<?xml version="1.0" encoding="UTF-8" standalone="no"?>
<!-- Created with Inkscape (http://www.inkscape.org/) -->

<svg
   width="512"
   height="512"
   viewBox="0 0 135.46666 135.46667"
   version="1.1"
   id="svg5"
   inkscape:version="1.2.1 (9c6d41e410, 2022-07-14)"
   sodipodi:docname="character.svg"
   inkscape:export-filename="character.png"
   inkscape:export-xdpi="96"
   inkscape:export-ydpi="96"
   xmlns:inkscape="http://www.inkscape.org/namespaces/inkscape"
   xmlns:sodipodi="http://sodipodi.sourceforge.net/DTD/sodipodi-0.dtd"
   xmlns="http://www.w3.org/2000/svg"
   xmlns:svg="http://www.w3.org/2000/svg">
  <sodipodi:namedview
     id="namedview7"
     pagecolor="#505050"
     bordercolor="#eeeeee"
     borderopacity="1"
     inkscape:showpageshadow="0"
     inkscape:pageopacity="0"
     inkscape:pagecheckerboard="true"
     inkscape:deskcolor="#505050"
     inkscape:document-units="px"
     showgrid="false"
     inkscape:zoom="0.88001211"
     inkscape:cx="263.63273"
     inkscape:cy="272.72352"
     inkscape:window-width="1366"
     inkscape:window-height="697"
     inkscape:window-x="-8"
     inkscape:window-y="-8"
     inkscape:window-maximized="1"
     inkscape:current-layer="layer1" />
  <defs
     id="defs2" />
  <g
     inkscape:label="Layer 1"
     inkscape:groupmode="layer"
     id="layer1">
    <path
       style="fill:#ff9955;fill-opacity:1;stroke:none;stroke-width:1.57495;stroke-opacity:0.952941"
       d="m 36.005277,23.722917 c 0.110422,0 0.331266,0.106544 0.331266,0 0,-0.106544 -0.423144,0.0591 -0.331266,0 0.167218,-0.107563 0.394995,-0.08343 0.579716,-0.159815 0.02538,-0.01049 -0.01952,-0.06107 0,-0.07991 0.04365,-0.04211 0.114273,-0.04687 0.165634,-0.07991 0.05136,-0.03304 0.02761,-0.13318 0.08282,-0.159816 0.09338,-0.04505 0.459181,-0.04351 0.4969,-0.07991 0.01952,-0.01884 -0.02619,-0.07149 0,-0.07991 0.142749,-0.04591 0.44073,0.06705 0.579718,0 0.02469,-0.01191 -0.01952,-0.06107 0,-0.07991 0.0083,-0.008 0.240168,-0.008 0.24845,0 0.110345,0.106468 -0.07353,0.497373 0,0.639264 0.05302,0.102319 0.128826,0.213088 0.165634,0.319633 0.02619,0.07581 -0.05856,0.183221 0,0.239724 0.01952,0.01884 0.0633,-0.01884 0.08282,0 0.03904,0.03767 -0.03904,0.122147 0,0.159817 0.01952,0.01883 0.0633,-0.01884 0.08282,0 0.05856,0.0565 -0.02009,0.162201 0,0.239724 0.06087,0.234926 0.145417,0.440436 0.24845,0.639264 0.02469,0.04765 -0.03904,0.122148 0,0.159817 0.01952,0.01883 0.05521,0 0.08282,0 0.422782,0 1.153809,0.214897 1.573519,0.07991 0.03704,-0.01191 0.0479,-0.06306 0.08282,-0.07991 0.0654,-0.03155 0.178606,0.02246 0.24845,0 0.192517,-0.06192 0.383708,-0.192443 0.579717,-0.239724 0.05356,-0.01292 0.113255,0.01685 0.165633,0 0.03704,-0.01191 0.05521,-0.05327 0.08282,-0.07991 0.05521,-0.02663 0.105749,-0.06546 0.165634,-0.07991 0.08034,-0.01938 0.18989,0.0565 0.24845,0 0.01952,-0.01883 -0.02619,-0.07148 0,-0.07991 0.130945,-0.04212 0.283139,0.04211 0.414084,0 0.03704,-0.01191 0.05521,-0.05327 0.08282,-0.07991 0.08282,-0.02664 0.16376,-0.05948 0.24845,-0.07991 0.103927,-0.02507 0.22734,0.02507 0.331267,0 0.07513,-0.01812 0.177149,-0.125418 0.24845,-0.159816 0.154592,-0.07458 0.425126,0.07458 0.579717,0 0.01494,-0.0072 -0.237125,-0.650192 -0.165633,-0.719173 0.01952,-0.01884 0.05813,0.01191 0.08282,0 0.09647,-0.04654 0.151979,-0.113275 0.24845,-0.159817 0.110327,-0.05323 0.800657,-0.05323 0.910985,0 0.08323,0.04016 0.465473,0.209402 0.4969,0.239725 0.0347,0.03349 0.05772,0.191295 0.08282,0.239724 0.06342,0.122386 0.147582,0.06249 0.248451,0.159817 0.07396,0.07136 0.04975,0.223918 0.08282,0.319632 0.03904,0.113007 0.126593,0.206625 0.165633,0.319632 0.02328,0.06739 -0.0327,0.176621 0,0.239724 0.03492,0.06738 0.130715,0.09243 0.165634,0.159817 0.106351,0.205232 -0.01567,0.524803 -0.08282,0.719173 -0.04141,0.119862 0.04141,0.279678 0,0.39954 -0.07352,0.212806 -0.278536,0.613826 -0.496901,0.719173 -0.347217,0.167512 -0.948892,0.26139 -1.325068,0.07991 -0.04938,-0.02382 -0.126593,0.03767 -0.165633,0 -0.03828,-0.03694 0.025,-0.191477 0,-0.239724 -0.01746,-0.03369 -0.06536,-0.04622 -0.08282,-0.07991 -0.09716,-0.187495 0.163158,-0.611833 -0.24845,-0.479449 -0.180484,0.05805 -0.258143,0.269478 -0.414084,0.319632 -0.05238,0.01685 -0.116251,-0.02382 -0.165633,0 -0.06984,0.03369 -0.10317,0.114614 -0.165634,0.159817 -0.04938,0.03574 -0.121985,0.03779 -0.165633,0.07991 -0.01952,0.01884 0.01952,0.06107 0,0.07991 -0.06686,0.06451 -0.964273,0.11274 -1.159435,0.159816 -0.05989,0.01445 -0.107073,0.06107 -0.165634,0.07991 -0.246148,0.07917 -0.675853,-0.113436 -0.910984,0 -0.03492,0.01685 -0.04578,0.068 -0.08282,0.07991 -0.302069,0.09715 -1.937787,0 -2.401686,0 -0.29073,0 -1.505664,0.07269 -1.656335,0 -0.241261,-0.116394 -0.165634,-0.427721 -0.165634,-0.639266 0,-0.587369 -0.08282,-1.081127 -0.08282,-1.678069 0,-0.227372 0.07433,-0.895364 0,-1.038806 -0.07199,-0.138917 -0.165634,-0.26636 -0.24845,-0.399541 z"
       id="path2107-5" />
    <path
       style="fill:#ff9955;fill-opacity:1;stroke:none;stroke-width:1.57495;stroke-opacity:0.952941"
       d="m 33.328125,22.862521 c 0.05521,-0.106544 0.110422,-0.213088 0.165634,-0.319632 0.02761,0 0.0633,0.01883 0.08282,0 0.03904,-0.03767 -0.02469,-0.112168 0,-0.159817 0.09619,-0.185629 0.318794,-0.295563 0.414084,-0.479448 0.01655,-0.03195 0.13471,-1.498018 0.08282,-1.598163 -0.09954,-0.19208 -0.373213,-0.220525 -0.4969,-0.39954 -0.110517,-0.159953 -0.327617,-0.312586 -0.414084,-0.479449 -0.02469,-0.04765 0.02841,-0.114136 0,-0.159816 -0.153018,-0.246073 -0.420624,-0.50469 -0.496901,-0.799081 -0.01339,-0.05168 0.02469,-0.112168 0,-0.159816 -0.03492,-0.06738 -0.122323,-0.09713 -0.165634,-0.159816 -0.250643,-0.362761 -0.327577,-1.021662 -0.165633,-1.438346 0.222759,-0.573161 0.705567,-1.559775 1.159435,-1.997703 0.244671,-0.236078 0.610292,-0.545094 0.910984,-0.719173 0.295377,-0.171002 0.02922,-0.0056 0.414084,-0.07991 0.4996,-0.09641 -0.06715,-0.03801 0.24845,-0.159816 0.341417,-0.131771 0.721748,-0.221802 1.076618,-0.319633 0.211011,-0.05817 0.376859,-0.17448 0.579717,-0.239724 0.414037,-0.133165 1.370735,-0.152473 1.821969,-0.07991 0.295967,0.04759 0.70748,0.646093 0.828167,0.878989 0.03704,0.07147 -0.02619,0.163917 0,0.239724 0.01235,0.03574 0.06536,0.04622 0.08282,0.07991 0.03974,0.07669 -0.02651,0.242893 0,0.319632 0.03904,0.113007 0.119784,0.209032 0.165634,0.319632 0.0205,0.04946 -0.03904,0.122147 0,0.159817 0.01952,0.01883 0.07409,-0.02527 0.08282,0 0.09053,0.262055 -0.07753,0.247374 0.08282,0.479448 0.126841,0.183578 0.04731,-0.03426 0.248451,0.159816 0.06588,0.06357 0.106129,0.342127 0.165633,0.399541 0.01952,0.01884 0.0633,-0.01884 0.08282,0 0.01952,0.01884 -0.01952,0.06107 0,0.07991 0.03904,0.03767 0.140943,-0.04765 0.165634,0 0.02469,0.04765 -0.02469,0.112168 0,0.159816 0.03704,0.07147 0.174376,-0.03574 0.24845,0 0.02469,0.01191 -0.01952,0.06107 0,0.07991 0.048,0.04631 0.283266,0.113502 0.331266,0.159817 0.03807,0.03673 0.380574,0.591691 0.248451,0.719173 -0.137579,0.132747 -0.586538,0.348462 -0.74535,0.39954 -0.07857,0.02527 -0.189891,-0.0565 -0.248451,0 -0.0045,0.0043 -0.161146,0.235394 -0.165633,0.239724 -0.03904,0.03767 -0.126594,-0.03767 -0.165634,0 -0.05283,0.05097 -0.02605,0.748812 0,0.799082 0.07626,0.147162 0.521531,1.015039 0.331267,1.198621 -0.01952,0.01884 -0.05813,-0.01191 -0.08282,0 -0.197678,0.09537 -0.269383,0.326366 -0.4969,0.399541 -0.150417,0.04838 -0.849063,-0.05975 -0.910985,0 -0.01952,0.01883 0.01235,0.05608 0,0.07991 -0.09156,0.176681 -0.0514,0.0248 -0.165634,0.07991 -0.344663,0.166279 0.08854,-0.0055 -0.08282,0.159816 -0.171351,0.165333 0.0067,-0.25265 -0.165633,0.07991 -0.04082,0.07878 0.08089,0.877127 0.08282,0.87899 0.01952,0.01883 0.0633,-0.01884 0.08282,0 0.07736,0.07464 0.08828,0.324899 0.165634,0.39954 0.01291,0.01246 0.235534,0.147355 0.24845,0.159816 0.06558,0.06328 0.129755,0.4555 0.165633,0.559357 0.02005,0.05804 0.165839,0.319435 0.08282,0.39954 -0.01952,0.01884 -0.05813,-0.01191 -0.08282,0 -0.126332,0.06095 -0.207754,0.180137 -0.331267,0.239725 -0.152036,0.07335 -0.25266,-0.07585 -0.414083,0.07991 -0.01952,0.01883 0.01952,0.06107 0,0.07991 -0.03904,0.03767 -0.126594,-0.03767 -0.165634,0 -0.01952,0.01884 0.01952,0.06107 0,0.07991 -0.03797,0.03664 -0.53999,0 -0.662534,0 -0.545139,0 -1.360374,0.142783 -1.821969,-0.07991 -0.220845,-0.106544 -0.607323,0.106544 -0.828168,0 -0.143757,-0.06935 -0.1804,-0.142679 -0.331266,-0.239724 -9.37e-4,-6.38e-4 -0.852656,-0.02363 -0.910985,-0.07991 -0.12499,-0.1206 -0.220845,-0.266361 -0.331267,-0.399541 z"
       id="path298" />
    <path
       style="fill:#008000;fill-opacity:1;stroke:none;stroke-width:1.57495;stroke-opacity:0.952941"
       d="m 33.659392,23.262062 c 0.01935,-0.01672 1.435384,0.61267 1.987603,0.39954 0.09241,-0.03567 0.156035,-0.124148 0.24845,-0.159816 0.180094,-0.06951 0.337289,0.03705 0.579717,-0.07991 0.32231,-0.155495 1.172714,0.15341 1.490702,0 0.02469,-0.01191 -0.01952,-0.06107 0,-0.07991 0.03904,-0.03767 0.126593,0.03767 0.165633,0 0.01952,-0.01884 -0.01952,-0.06107 0,-0.07991 0.02761,-0.02664 0.220845,-0.05327 0.248451,-0.07991 0.01952,-0.01883 -0.01952,-0.06107 0,-0.07991 0.04141,-0.03995 0.207041,0.03995 0.248449,0 0.01952,-0.01883 -0.01952,-0.06107 0,-0.07991 0.03904,-0.03767 0.126594,0.03767 0.165634,0 0.01952,-0.01884 -0.01952,-0.06107 0,-0.07991 0.07383,-0.07123 0.243314,-0.03748 0.331267,-0.07991 0.03492,-0.01685 0.04378,-0.07991 0.08282,-0.07991 0.02761,0 -0.01952,0.06107 0,0.07991 0.01952,0.01884 0.0633,-0.01883 0.08282,0 0.02396,0.02312 0.212115,0.329421 0.24845,0.399541 0.122534,0.236459 0.288571,0.476963 0.414084,0.719173 0.110865,0.213941 0.20696,0.558878 0.24845,0.799081 0.01816,0.105094 -0.02166,0.215157 0,0.319632 -0.019,0.160467 0.129578,0.260384 0.165634,0.39954 0.05168,0.199469 -0.04172,0.437986 0,0.639265 0.09469,0.456825 0.251567,0.897036 0.331267,1.358438 0.06246,0.361623 0.12777,0.151812 0.24845,0.559357 0.02275,0.07683 -0.01624,0.161368 0,0.239724 0.01211,0.0584 0.05521,0.106544 0.08282,0.159817 0.02761,0.13318 0.06727,0.264553 0.08282,0.39954 0.01219,0.105893 -0.01562,0.214159 0,0.319633 0.01235,0.08338 0.06847,0.156639 0.08282,0.239724 0.02723,0.157642 -0.07407,0.336504 0,0.479448 0.110158,0.212577 0.259422,-0.077 0.165634,0.239724 -0.07084,0.239245 -0.259222,0.430723 -0.331268,0.639266 -0.01746,0.05054 0.02469,0.112168 0,0.159815 -0.06539,0.126198 -0.282204,0.257523 -0.331266,0.399541 -0.06756,0.19556 -0.08177,1.1177 -0.08282,1.118714 -0.0035,0.0034 -0.487995,0.317484 -0.4969,0.319632 -0.05356,0.01292 -0.116251,-0.02382 -0.165634,0 -0.06984,0.03369 -0.0958,0.126125 -0.165634,0.159816 -0.04938,0.02382 -0.11207,-0.01292 -0.165633,0 -0.11977,0.02889 -0.210209,0.136456 -0.331267,0.159817 -0.499924,0.09647 0.02108,-0.15197 -0.579717,0.07991 -0.134297,0.05183 -0.26146,0.190636 -0.414084,0.239724 -0.200311,0.06442 -1.441191,0.0073 -1.490702,0 -0.146932,-0.02181 -0.26831,-0.131685 -0.414084,-0.159816 -0.190443,-0.03675 -0.922706,-0.01131 -1.076618,-0.159816 -0.01952,-0.01884 0.01952,-0.06107 0,-0.07991 -0.05946,-0.05737 -0.577315,0 -0.662534,0 -0.5394,0 -0.48671,-0.04401 -0.993801,-0.239724 -0.114467,-0.04418 -0.739181,0.0059 -0.828168,-0.07991 -0.159485,-0.153884 -0.08282,-2.093533 -0.08282,-2.317335 0,-0.106544 -0.01815,-0.214538 0,-0.319632 0.01015,-0.05875 0.0633,-0.103313 0.08282,-0.159817 0.08293,-0.240061 -0.05187,-0.548855 0,-0.799081 0.04661,-0.224872 0.04741,-0.417176 0.08282,-0.639264 0.104658,-0.656382 0.331267,-1.33152 0.331267,-1.997703 0,-0.652714 -0.0012,-1.269704 0.08282,-1.917795 0.01384,-0.106803 -0.04903,-0.304924 0,-0.399541 0.06039,-0.116539 0.132484,-0.12783 0.165634,-0.159815 0.02896,-0.02794 0.155839,-0.671927 0.165633,-0.719173 z"
       id="path1793" />
    <path
       style="fill:#000080;fill-opacity:1;stroke:none;stroke-width:1.8445;stroke-opacity:0.952941"
       d="m 32.831224,32.784391 c 0.05521,-0.07307 0.220845,-0.146135 0.165634,-0.219204 -0.05521,-0.07307 -0.2374,0.178499 -0.165634,0.219204 0.229768,0.130319 0.499404,0.05042 0.745352,0.109602 0.06073,0.01461 0.105748,0.08979 0.165633,0.109601 0.241001,0.07974 0.340827,-0.04847 0.579718,0.109601 0.109063,0.07217 0.297853,-0.05127 0.414083,0 0.03704,0.01634 0.04494,0.09707 0.08282,0.109602 0.115643,0.03826 0.450195,0.109602 0.579717,0.109602 0.732692,0 1.41239,-0.109602 2.153236,-0.109602 0.180826,0 1.160012,0.10922 1.325068,0 0.06984,-0.04621 0.09314,-0.180826 0.165633,-0.219203 0.10568,-0.05594 0.22665,-0.05026 0.331267,-0.109601 0.330745,-0.187593 0.140241,-0.208002 0.414084,-0.328806 0.07213,-0.03182 1.219425,-0.17002 1.242251,-0.1096 0.05498,0.145527 0.02784,0.40248 0.08282,0.548007 0.01235,0.03268 0.07047,-0.03268 0.08282,0 0.07757,0.205306 -0.06488,0.552538 0,0.767211 0.125014,0.413614 0.226535,0.7898 0.331267,1.205617 0.02619,0.103976 -0.02009,0.222475 0,0.328804 0.02994,0.158506 0.131718,0.281309 0.165634,0.438407 0.07545,0.349467 0.202417,0.840087 0.24845,1.205615 0.01362,0.108112 -0.01624,0.221333 0,0.328806 0.02421,0.160212 0.126594,0.283405 0.165634,0.438406 0.06775,0.268982 0.09737,0.605809 0.165633,0.876814 0.01235,0.04901 0.06744,0.06211 0.08282,0.109601 0.33884,1.345285 -0.03695,0.01177 0.414084,1.205614 0.04417,0.116907 -0.04417,0.321502 0,0.438409 0.0017,0.0046 0.215018,0.152835 0.24845,0.219205 0.06314,0.12533 0.01968,0.313066 0.08282,0.438404 0.03424,0.06797 0.128597,0.04425 0.165633,0.109601 0.05238,0.09242 0.0379,0.22974 0.08282,0.328803 0.04017,0.08861 0.125461,0.130597 0.165633,0.219202 0.299939,0.661577 -0.04346,0.04666 0.08282,0.548011 0.01235,0.04902 0.07047,0.06059 0.08282,0.109603 0.01746,0.06932 -0.01746,0.149882 0,0.2192 0.08702,0.345499 0.356244,0.157443 -0.24845,0.657608 -0.612129,0.506318 -0.03855,-0.08126 -0.745351,0.438407 -0.24911,0.183155 -0.490757,0.489141 -0.745351,0.657609 -0.179509,0.118784 -0.393389,0.137008 -0.579717,0.219205 -0.05776,0.02549 -0.395931,0.03204 -0.414084,0 -0.07407,-0.130709 -0.09156,-0.307701 -0.165633,-0.43841 -0.03313,-0.05845 -0.126594,0.05167 -0.165634,0 -0.0873,-0.115528 -0.09715,-0.302459 -0.165633,-0.438404 -0.137421,-0.272798 -0.347426,-0.503453 -0.496901,-0.76721 -0.19998,-0.352877 -0.270339,-0.07242 -0.414084,-0.548005 -0.0205,-0.06784 0,-0.146137 0,-0.219204 -0.08282,-0.182672 -0.185042,-0.352205 -0.24845,-0.548011 -0.03262,-0.10074 0.03704,-0.230771 0,-0.328803 -0.06941,-0.183729 -0.0851,-0.334857 -0.165634,-0.548008 -0.195338,-0.517029 -0.600109,-0.848176 -0.74535,-1.424818 -0.04231,-0.167969 -0.124688,-0.768433 -0.165634,-0.876814 -0.195538,-0.51756 0.04355,0.668968 -0.165633,-0.438404 -0.01581,-0.08367 0.04318,-0.381259 0,-0.438409 -0.02196,-0.02905 -0.654716,0.107015 -0.662535,0.109603 -0.100694,0.03332 -0.37477,0.443948 -0.414084,0.548005 -0.148933,0.394206 -0.192168,0.758719 -0.24845,1.20562 -0.01362,0.10811 0.02619,0.224828 0,0.328803 -0.03599,0.142905 -0.04055,0.298547 -0.08282,0.438406 -0.03696,0.122303 -0.141493,0.201015 -0.165633,0.328806 -0.03348,0.177215 0.02994,0.36969 0,0.548008 -0.02678,0.159493 -0.122285,0.285426 -0.165633,0.438404 -0.04942,0.174427 -0.0104,0.388268 -0.08282,0.54801 -0.07101,0.156639 -0.181419,0.278726 -0.24845,0.438405 -0.08517,0.202894 -0.440793,1.217398 -0.662535,1.31522 -0.263126,0.116075 -1.933747,0 -2.236052,0 -0.34845,0 -0.74608,-1.94e-4 -1.076618,-0.109604 -0.144222,-0.04772 -0.271143,-0.165154 -0.414084,-0.219202 -0.07963,-0.03011 -0.18989,0.0775 -0.24845,0 -0.06679,-0.08839 -0.09895,-1.911668 -0.08282,-2.082427 0.0077,-0.08106 0.07071,-0.139103 0.08282,-0.219205 0.02068,-0.136833 -0.0063,-0.539686 0.08282,-0.657609 0.01952,-0.02583 0.0633,0.02586 0.08282,0 0.0976,-0.129167 0.204801,-0.265112 0.24845,-0.438407 0.04451,-0.176728 0.04415,-0.368887 0.08282,-0.548007 0.05924,-0.274383 0.27062,-0.526422 0.331268,-0.76721 0.172303,-0.684096 0.09016,-1.383243 0.165633,-2.08243 0.06767,-0.626889 0.155326,-1.247015 0.24845,-1.863227 0.06237,-0.412684 -0.192989,-1.133211 -0.08282,-1.424819 0.01235,-0.03268 0.06557,0.02853 0.08282,0 0.100556,-0.166347 0.165633,-0.365339 0.24845,-0.548008 z"
       id="path1921" />
    <path
       style="fill:#e3dbdb;fill-opacity:1;stroke:none;stroke-width:1.57495;stroke-opacity:0.952941"
       d="m 41.030083,44.277893 c -0.002,1.020078 -0.119155,1.284938 0.993802,1.438347 0.109312,0.01507 0.223672,-0.02395 0.331267,0 0.255183,0.05682 0.492304,0.174615 0.745351,0.239725 0.481294,0.123836 1.003818,0.225674 1.490702,0.319632 0.540525,0.104309 1.719332,0 2.318869,0 0.19184,0 0.85735,0.09564 0.993801,-0.07991 0.07201,-0.09264 0.386449,-1.544918 0.24845,-1.678069 -0.01952,-0.01884 -0.05985,0.01478 -0.08282,0 -0.06497,-0.04179 -0.09387,-0.130141 -0.165633,-0.159817 -0.487071,-0.201414 -2.418579,-0.07991 -3.147037,-0.07991 -0.198318,0 -0.481439,0.05824 -0.662534,0 -0.0088,-0.0028 -0.06999,-0.135059 -0.08282,-0.159817 -0.06173,-0.119118 -0.223485,-0.156526 -0.331267,-0.239722 -0.38422,0.06838 -0.09525,-0.171817 -0.165634,-0.239726 -0.01952,-0.01884 -0.05663,0.0084 -0.08282,0 -0.54845,-0.176396 -0.692519,0.05373 -1.242251,0.159817 -0.05414,0.01044 -0.116252,-0.02381 -0.165634,0 -0.02469,0.01191 0.01952,0.06107 0,0.07991 -0.09601,0.09264 -0.535367,-0.01826 -0.662534,0.07991 -0.121942,0.09413 -0.220844,0.213087 -0.331268,0.319631 z"
       id="path2040" />
    <path
       style="fill:#e3dbdb;fill-opacity:1;stroke:none;stroke-width:1.57495;stroke-opacity:0.952941"
       d="m 31.588973,43.478812 c 0.572207,0.241755 1.209873,0.304011 1.739152,0.559359 0.09877,0.04765 0.224142,-0.02583 0.331267,0 0.03787,0.0091 0.04578,0.068 0.08282,0.07991 0.284331,0.09145 0.977993,0 1.325068,0 0.503231,0 1.079198,-0.06813 1.573518,0 0.626586,0.08637 0.152317,0.07991 0.414084,0.07991 0.216871,0 0.659082,-0.08157 0.828168,0 0.06984,0.03369 0.0958,0.126124 0.165634,0.159817 0.06273,0.03026 0.372523,-2.66e-4 0.414083,0.07991 0.08431,0.162701 0,0.532513 0,0.719174 0,0.06977 0.06362,0.577881 0,0.639264 -0.01952,0.01884 -0.05521,0 -0.08282,0 0,0.05327 0.02469,0.112169 0,0.159817 -0.01235,0.02381 -0.05813,-0.01191 -0.08282,0 -0.08903,0.04295 -0.168824,0.102192 -0.24845,0.159815 -0.09276,0.06712 -0.155696,0.172603 -0.248451,0.239725 -0.165388,0.119685 -0.399039,0.312375 -0.579717,0.39954 -0.02469,0.01191 -0.0633,-0.01884 -0.08282,0 -0.01952,0.01884 0.01952,0.06107 0,0.07991 -0.149231,0.14399 -0.801583,0.07991 -0.993801,0.07991 -0.230336,0 -0.523194,0.05359 -0.745351,0 -0.817813,-0.197272 -1.597305,-0.577331 -2.401686,-0.799081 -0.14294,-0.0394 -0.269862,-0.125027 -0.414084,-0.159815 -0.175159,-0.04225 -0.675105,0.123427 -0.745351,-0.07991 -0.04969,-0.143836 0.04969,-0.335615 0,-0.479451 -0.01234,-0.03574 -0.06536,-0.04622 -0.08282,-0.07991 -0.01235,-0.02381 0.01952,-0.06107 0,-0.07991 -0.01952,-0.01884 -0.07047,0.02381 -0.08282,0 -0.315599,-0.609033 0.516466,0.467812 -0.08282,-0.399542 -0.01531,-0.02217 -0.0633,0.01884 -0.08282,0 -0.03789,-0.03655 -0.02768,-0.585844 0,-0.639265 0.01746,-0.03369 0.07047,-0.04417 0.08282,-0.07991 0.06984,-0.202152 0,-0.426175 0,-0.639264 z"
       id="path2105" />
    <path
       style="fill:#ff9955;fill-opacity:1;stroke:none;stroke-width:1.57495;stroke-opacity:0.952941"
       d="m 36.392346,26.618202 c 0.110422,0 0.331267,0.106544 0.331267,0 0,-0.106544 -0.423144,0.0591 -0.331267,0 0.167218,-0.107564 0.394995,-0.08343 0.579716,-0.159816 0.02537,-0.01049 -0.01952,-0.06107 0,-0.07991 0.04365,-0.04212 0.114273,-0.04687 0.165634,-0.07991 0.05136,-0.03304 0.02761,-0.13318 0.08282,-0.159816 0.09338,-0.04505 0.459181,-0.04351 0.4969,-0.07991 0.01952,-0.01884 -0.02619,-0.07149 0,-0.07991 0.142749,-0.04591 0.44073,0.06705 0.579718,0 0.02469,-0.01191 -0.01952,-0.06107 0,-0.07991 0.0083,-0.008 0.240168,-0.008 0.24845,0 0.110345,0.106469 -0.07353,0.497373 0,0.639265 0.05302,0.102319 0.128826,0.213087 0.165634,0.319633 0.02619,0.07581 -0.05856,0.18322 0,0.239724 0.01952,0.01883 0.0633,-0.01884 0.08282,0 0.03904,0.03767 -0.03904,0.122147 0,0.159816 0.01952,0.01884 0.0633,-0.01884 0.08282,0 0.05856,0.0565 -0.02009,0.162202 0,0.239724 0.06087,0.234926 0.145417,0.440437 0.24845,0.639265 0.02469,0.04765 -0.03904,0.122147 0,0.159816 0.01952,0.01884 0.05521,0 0.08282,0 0.422782,0 1.153809,0.214898 1.573519,0.07991 0.03704,-0.01191 0.0479,-0.06306 0.08282,-0.07991 0.0654,-0.03155 0.178606,0.02246 0.24845,0 0.192517,-0.06192 0.383708,-0.192443 0.579717,-0.239724 0.05356,-0.01292 0.113255,0.01685 0.165633,0 0.03704,-0.01191 0.05521,-0.05327 0.08282,-0.07991 0.05521,-0.02664 0.105749,-0.06546 0.165634,-0.07991 0.08034,-0.01938 0.18989,0.0565 0.24845,0 0.01952,-0.01884 -0.02619,-0.07149 0,-0.07991 0.130945,-0.04211 0.283139,0.04212 0.414084,0 0.03704,-0.01191 0.05521,-0.05327 0.08282,-0.07991 0.08282,-0.02664 0.16376,-0.05948 0.24845,-0.07991 0.103927,-0.02507 0.22734,0.02507 0.331267,0 0.07513,-0.01812 0.177149,-0.125418 0.24845,-0.159817 0.154592,-0.07458 0.425126,0.07458 0.579717,0 0.01494,-0.0072 -0.237125,-0.650192 -0.165633,-0.719173 0.01952,-0.01883 0.05812,0.01191 0.08282,0 0.09647,-0.04654 0.151979,-0.113275 0.24845,-0.159816 0.110327,-0.05323 0.800657,-0.05323 0.910985,0 0.08323,0.04015 0.465473,0.209401 0.4969,0.239725 0.0347,0.03348 0.05772,0.191295 0.08282,0.239724 0.06342,0.122385 0.147582,0.06249 0.248451,0.159816 0.07396,0.07136 0.04975,0.223918 0.08282,0.319632 0.03904,0.113008 0.126593,0.206625 0.165633,0.319633 0.02328,0.06739 -0.0327,0.17662 0,0.239724 0.03492,0.06739 0.130715,0.09243 0.165634,0.159816 0.106351,0.205232 -0.01567,0.524803 -0.08282,0.719173 -0.04141,0.119862 0.04141,0.279678 0,0.399541 -0.07352,0.212806 -0.278536,0.613825 -0.496901,0.719172 -0.347217,0.167512 -0.948892,0.26139 -1.325068,0.07991 -0.04938,-0.02382 -0.126593,0.03767 -0.165633,0 -0.03828,-0.03694 0.025,-0.191478 0,-0.239724 -0.01746,-0.03369 -0.06536,-0.04622 -0.08282,-0.07991 -0.09716,-0.187494 0.163158,-0.611832 -0.24845,-0.479448 -0.180484,0.05805 -0.258143,0.269477 -0.414084,0.319632 -0.05238,0.01685 -0.116251,-0.02382 -0.165633,0 -0.06984,0.03369 -0.10317,0.114614 -0.165634,0.159816 -0.04938,0.03574 -0.121985,0.03779 -0.165633,0.07991 -0.01952,0.01883 0.01952,0.06107 0,0.07991 -0.06686,0.06451 -0.964273,0.112739 -1.159435,0.159816 -0.05989,0.01444 -0.107073,0.06107 -0.165634,0.07991 -0.246148,0.07917 -0.675853,-0.113437 -0.910984,0 -0.03492,0.01685 -0.04578,0.068 -0.08282,0.07991 -0.302069,0.09715 -1.937787,0 -2.401686,0 -0.29073,0 -1.505664,0.07269 -1.656335,0 -0.241261,-0.116394 -0.165633,-0.42772 -0.165633,-0.639265 0,-0.587369 -0.08282,-1.081127 -0.08282,-1.67807 0,-0.227372 0.07433,-0.895364 0,-1.038806 -0.07199,-0.138916 -0.165634,-0.26636 -0.24845,-0.39954 z"
       id="path2107" />
  </g>
</svg>
